<svg width="100" height="100" viewBox="0 0 100 100" fill="none" xmlns="http://www.w3.org/2000/svg">
<path d="M40.3675 50.0211L77.7773 12.6098C78.8073 11.5821 79.374 10.2081 79.374 8.74309C79.374 7.27724 78.8073 5.90407 77.7773 4.8748L74.4992 1.59837C73.4708 0.56748 72.096 0 70.6309 0C69.1659 0 67.7927 0.56748 66.7634 1.59837L22.2212 46.1398C21.1878 47.1724 20.622 48.552 20.626 50.0187C20.622 51.4919 21.187 52.8699 22.2212 53.9033L66.722 98.4016C67.7512 99.4325 69.1244 100 70.5903 100C72.0553 100 73.4285 99.4325 74.4586 98.4016L77.7358 95.1252C79.8683 92.9927 79.8683 89.5211 77.7358 87.3894L40.3675 50.0211Z" fill="#00FFF0"/>
</svg>
