<svg width="51" height="50" viewBox="0 0 51 50" fill="none" xmlns="http://www.w3.org/2000/svg">
<g clip-path="url(#clip0)">
<path d="M30.0268 35.7286C30.4464 35.7286 30.7866 35.3902 30.7866 34.9728C30.7866 34.5554 30.4464 34.217 30.0268 34.217C29.6071 34.217 29.267 34.5554 29.267 34.9728C29.267 35.3902 29.6071 35.7286 30.0268 35.7286Z" fill="#00FFF0"/>
<path d="M43.0236 32.6046C41.7107 32.6046 40.6428 33.6669 40.6428 34.9728C40.6428 36.2786 41.7107 37.341 43.0236 37.341C44.3364 37.341 45.4044 36.2786 45.4044 34.9728C45.4044 33.6669 44.3364 32.6046 43.0236 32.6046ZM43.0236 35.8293C42.5487 35.8293 42.1625 35.445 42.1625 34.9728C42.1625 34.5005 42.5488 34.1162 43.0236 34.1162C43.4985 34.1162 43.8847 34.5005 43.8847 34.9728C43.8847 35.445 43.4985 35.8293 43.0236 35.8293Z" fill="#00FFF0"/>
<path d="M48.5067 27.0584H39.9605C41.4468 25.4092 42.0666 23.0888 41.4924 20.8596L39.537 13.2694C39.4328 12.8651 39.0191 12.6215 38.6123 12.7249C38.2059 12.8285 37.9607 13.2402 38.0649 13.6446L40.0203 21.2348C40.5847 23.4256 39.6646 25.7307 37.7736 26.9477L33.7237 21.9026C32.9288 20.9121 31.742 20.3441 30.4679 20.3441H25.1336H19.7994C18.5252 20.3441 17.3384 20.9122 16.5434 21.9026L12.4936 26.9477C10.6026 25.7307 9.68261 23.4256 10.2469 21.2348L12.7292 11.5994C13.129 10.0471 14.2687 8.78524 15.7777 8.22401L17.8645 7.44793C18.3479 7.26795 18.8962 7.38651 19.2612 7.7495C19.2613 7.74959 19.2613 7.74959 19.2614 7.74969L21.3418 9.81903C21.8677 10.3421 22.5667 10.6301 23.3103 10.6301H25.1336H26.9568C27.7004 10.6301 28.3995 10.342 28.9254 9.81903L31.0059 7.74959C31.3709 7.38651 31.9189 7.26815 32.4029 7.44793L34.4895 8.22401C35.7165 8.68036 36.6937 9.58348 37.2412 10.767C37.3693 11.0438 37.6444 11.2071 37.932 11.2071C38.0382 11.2071 38.1462 11.1849 38.2491 11.1378C38.6303 10.9633 38.7972 10.5144 38.6217 10.1352C37.9055 8.5869 36.6271 7.40535 35.0219 6.80828L32.9352 6.03221C32.0019 5.68504 30.9571 5.85623 30.1849 6.45945H20.0824C19.3103 5.85613 18.2655 5.68494 17.3322 6.03221L15.2455 6.80828C13.2712 7.54256 11.7803 9.19335 11.2571 11.2242L8.77485 20.8596C8.20061 23.0888 8.82031 25.4093 10.3066 27.0584H1.76053C0.789744 27.0584 0 27.844 0 28.8095V33.6123V36.3332V41.136C0 42.1015 0.789744 42.8871 1.76053 42.8871H4.84597V43.3901C4.84597 43.8075 5.18615 44.1459 5.60577 44.1459C6.02538 44.1459 6.36557 43.8075 6.36557 43.3901V42.8871H43.9015V43.3901C43.9015 43.8075 44.2417 44.1459 44.6613 44.1459C45.0809 44.1459 45.4211 43.8075 45.4211 43.3901V42.8871H48.5066C49.4773 42.8871 50.267 42.1015 50.267 41.136V28.8095C50.2671 27.844 49.4774 27.0584 48.5067 27.0584ZM28.6342 7.97098L27.8508 8.75018C27.6121 8.98778 27.2945 9.11854 26.9568 9.11854H25.1336H23.3103C22.9727 9.11854 22.6552 8.98778 22.4164 8.75028L21.6329 7.97098H28.6342ZM48.5067 41.3754H1.76053C1.62779 41.3754 1.5197 41.268 1.5197 41.136V36.3332V34.3682H25.6825V35.5775H4.01872C3.59911 35.5775 3.25892 35.9159 3.25892 36.3332C3.25892 36.7506 3.59911 37.089 4.01872 37.089H25.7937C26.5704 37.089 27.2022 36.4606 27.2022 35.688V34.2576C27.2022 33.485 26.5704 32.8566 25.7937 32.8566H1.5197V28.8096C1.5197 28.6776 1.62769 28.5701 1.76053 28.5701H12.5558C12.5635 28.5703 12.5713 28.5716 12.579 28.5716C12.5879 28.5716 12.5967 28.5703 12.6057 28.5701H16.1086C16.5282 28.5701 16.8684 28.2318 16.8684 27.8144C16.8684 27.397 16.5282 27.0586 16.1086 27.0586H14.3493L17.7308 22.8459C18.2359 22.2168 18.9898 21.8559 19.7993 21.8559H25.1336H30.4679C31.2773 21.8559 32.0313 22.2167 32.5363 22.8459L35.9179 27.0586H19.4253C19.0057 27.0586 18.6655 27.397 18.6655 27.8144C18.6655 28.2318 19.0057 28.5701 19.4253 28.5701H37.6614C37.6703 28.5703 37.6791 28.5716 37.6881 28.5716C37.6958 28.5716 37.7035 28.5702 37.7112 28.5701H48.5066C48.6393 28.5701 48.7473 28.6776 48.7473 28.8096V41.136H48.7474C48.7474 41.268 48.6394 41.3754 48.5067 41.3754Z" fill="#00FFF0"/>
<path d="M17.2275 8.73352C15.8106 8.73352 14.6577 9.8802 14.6577 11.2897C14.6577 12.6992 15.8105 13.8457 17.2275 13.8457C18.6445 13.8457 19.7972 12.6991 19.7972 11.2897C19.7972 9.8802 18.6444 8.73352 17.2275 8.73352ZM17.2275 12.3341C16.6484 12.3341 16.1774 11.8656 16.1774 11.2896C16.1774 10.7136 16.6484 10.245 17.2275 10.245C17.8065 10.245 18.2776 10.7136 18.2776 11.2896C18.2775 11.8656 17.8064 12.3341 17.2275 12.3341Z" fill="#00FFF0"/>
<path d="M29.725 13.7089C28.3081 13.7089 27.1552 14.8555 27.1552 16.265C27.1552 17.6745 28.308 18.8211 29.725 18.8211C31.1421 18.8211 32.2948 17.6744 32.2948 16.265C32.2948 14.8556 31.142 13.7089 29.725 13.7089ZM29.725 17.3096C29.146 17.3096 28.6749 16.841 28.6749 16.265C28.6749 15.689 29.146 15.2205 29.725 15.2205C30.3041 15.2205 30.7752 15.689 30.7752 16.265C30.7752 16.841 30.3041 17.3096 29.725 17.3096Z" fill="#00FFF0"/>
<path d="M33.3835 10.4511C33.8031 10.4511 34.1433 10.1127 34.1433 9.69534C34.1433 9.27794 33.8031 8.93958 33.3835 8.93958C32.9638 8.93958 32.6237 9.27794 32.6237 9.69534C32.6237 10.1127 32.9638 10.4511 33.3835 10.4511Z" fill="#00FFF0"/>
<path d="M33.3835 14.4648C33.8031 14.4648 34.1433 14.1264 34.1433 13.709C34.1433 13.2916 33.8031 12.9532 33.3835 12.9532C32.9638 12.9532 32.6237 13.2916 32.6237 13.709C32.6237 14.1264 32.9638 14.4648 33.3835 14.4648Z" fill="#00FFF0"/>
<path d="M31.2137 12.4892C31.6334 12.4892 31.9735 12.1508 31.9735 11.7334C31.9735 11.316 31.6334 10.9777 31.2137 10.9777C30.7941 10.9777 30.4539 11.316 30.4539 11.7334C30.4539 12.1508 30.7941 12.4892 31.2137 12.4892Z" fill="#00FFF0"/>
<path d="M35.5532 12.4892C35.9728 12.4892 36.313 12.1508 36.313 11.7334C36.313 11.316 35.9728 10.9777 35.5532 10.9777C35.1336 10.9777 34.7934 11.316 34.7934 11.7334C34.7934 12.1508 35.1336 12.4892 35.5532 12.4892Z" fill="#00FFF0"/>
<path d="M23.0452 15.5093H21.9951V14.4647C21.9951 14.0474 21.6549 13.709 21.2353 13.709C20.8157 13.709 20.4755 14.0474 20.4755 14.4647V15.5093H19.4254C19.0058 15.5093 18.6656 15.8477 18.6656 16.265C18.6656 16.6824 19.0058 17.0208 19.4254 17.0208H20.4755V18.0653C20.4755 18.4827 20.8157 18.8211 21.2353 18.8211C21.6549 18.8211 21.9951 18.4827 21.9951 18.0653V17.0208H23.0452C23.4648 17.0208 23.805 16.6824 23.805 16.265C23.805 15.8477 23.4648 15.5093 23.0452 15.5093Z" fill="#00FFF0"/>
</g>
<defs>
<clipPath id="clip0">
<rect width="50.267" height="50" fill="white"/>
</clipPath>
</defs>
</svg>
