<svg width="51" height="50" viewBox="0 0 51 50" fill="none" xmlns="http://www.w3.org/2000/svg">
<path d="M11.1993 4.2418C11.1739 4.26123 11.1544 4.28261 11.1309 4.30204C11.2736 4.15242 11.4787 3.99114 11.6135 3.9037C15.5478 1.36017 20.0935 0 25.1374 0C29.8551 0 34.2739 1.29605 38.046 3.55005C38.3195 3.71133 39.0658 4.22043 39.4506 4.68289V4.68483C35.8112 0.693689 25.114 9.25696 25.114 9.25696C21.4141 6.42002 18.0111 4.48663 15.4774 3.79877C13.3599 3.22167 11.8948 3.70356 11.1993 4.2418ZM43.5724 8.01531C43.4611 7.8929 43.34 7.77825 43.2286 7.65195C42.3085 6.64737 41.1775 6.40448 40.1577 6.47054C39.2298 6.76007 34.942 8.29706 29.6578 13.2598C29.6578 13.2598 35.6061 19.0133 39.2494 24.8951C42.8887 30.7769 45.0649 35.3995 43.7268 41.8156C47.7881 37.3756 50.2651 31.4764 50.2651 24.9981C50.2651 18.442 47.7275 12.4747 43.5724 8.01531ZM34.4926 27.4075C32.8791 25.6062 30.4782 23.0258 27.3077 19.8896C26.6143 19.2037 25.8817 18.4887 25.112 17.7483C25.112 17.7483 23.9536 18.9006 22.4455 20.4162V20.4143C20.5155 22.3535 18.0131 24.8834 16.6241 26.3602C14.151 28.9853 7.06575 37.2299 6.66724 41.8526C6.66724 41.8526 5.09078 38.1859 8.5504 29.7295C10.8106 24.2014 17.64 15.9004 20.492 13.1956C20.492 13.1956 17.8861 10.3432 14.616 8.37284L14.5964 8.36701C14.5964 8.36701 14.5593 8.33787 14.5007 8.30095C12.9282 7.36826 11.211 6.64931 9.55839 6.5541C7.87058 6.67263 6.80203 7.90067 6.80203 7.90067C2.58446 12.3737 0.00390625 18.3857 0.00390625 25C0.00390625 38.8058 11.256 50 25.1374 50C32.504 50 39.1322 46.8405 43.7307 41.8176C43.7287 41.8098 43.2013 38.5143 39.8198 33.7867C39.0247 32.6792 36.1199 29.2224 34.4926 27.4075Z" fill="#00FFF0"/>
</svg>
