<svg width="51" height="50" viewBox="0 0 51 50" fill="none" xmlns="http://www.w3.org/2000/svg">
<g clip-path="url(#clip0)">
<path d="M21.6434 32.242C21.6429 32.0948 21.6415 31.9457 21.6415 31.8004C21.6415 24.2243 22.6238 0.850331 22.6238 0.850331C22.6238 0.381292 22.2415 0.000488281 21.7694 0.000488281H9.59428C9.12227 0.000488281 8.7399 0.381292 8.7399 0.850331C8.7399 0.850331 9.7222 24.2243 9.7222 31.8004C9.7222 39.377 8.7399 49.1506 8.7399 49.1506C8.7399 49.6206 9.12227 50 9.59428 50H18.6937C17.5368 48.8534 16.8705 46.6973 16.8705 43.818C16.8705 39.6798 18.3715 34.1707 21.6434 32.242ZM20.634 6.14908C20.634 6.45836 20.5705 6.7514 20.4613 7.02074C20.275 6.73514 20.049 6.43932 19.7969 6.14908C20.049 5.85883 20.2745 5.56208 20.4608 5.27741C20.571 5.54768 20.634 5.84072 20.634 6.14908ZM19.9365 7.80604C19.514 8.22074 18.9346 8.47802 18.2931 8.47802C17.8813 8.47802 17.5003 8.36285 17.1642 8.17709C17.3043 8.11532 17.4635 8.03823 17.6348 7.93932C18.0302 7.72802 18.4705 7.41409 18.8963 7.04582C19.246 7.34721 19.6008 7.6031 19.9365 7.80604ZM18.2936 3.82153C18.9336 3.82153 19.514 4.07834 19.937 4.49351C19.6013 4.69506 19.2465 4.9514 18.8968 5.25186C18.471 4.88453 18.0307 4.5706 17.6353 4.35837C17.4639 4.26038 17.3047 4.18236 17.1647 4.12153C17.5003 3.93577 17.8818 3.82153 18.2936 3.82153ZM16.8229 4.35047C16.8897 4.50558 16.9788 4.69227 17.096 4.89475C17.3089 5.28669 17.6245 5.72648 17.9938 6.14908C17.6245 6.5726 17.3089 7.01146 17.096 7.40434C16.9788 7.60495 16.8897 7.79257 16.8229 7.94768C16.2958 7.52136 15.9522 6.87818 15.9522 6.14908C15.9522 5.4209 16.2958 4.77865 16.8229 4.35047ZM13.0473 29.5328C13.0473 28.0852 14.2266 26.9117 15.6819 26.9117C17.1371 26.9117 18.316 28.0838 18.316 29.5328C18.316 30.9789 17.1371 32.1524 15.6819 32.1524C14.2266 32.1519 13.0473 30.9789 13.0473 29.5328ZM28.14 39.0979C28.295 39.0979 28.4392 39.0561 28.5643 38.9841C28.6666 39.2131 28.7245 39.4657 28.7245 39.7318C28.7245 39.9231 28.6955 40.107 28.6414 40.2802C28.4999 40.1771 28.3276 40.1158 28.14 40.1158C27.6703 40.1158 27.2893 40.4943 27.2893 40.9615C27.2893 41.1575 27.3575 41.3377 27.4691 41.4802C27.28 41.5452 27.0769 41.5824 26.8645 41.5824C26.652 41.5824 26.4494 41.5452 26.2599 41.4802C26.3714 41.3363 26.4396 41.1575 26.4396 40.9615C26.4396 40.4943 26.0591 40.1158 25.5894 40.1158C25.4017 40.1158 25.2285 40.1776 25.088 40.2802C25.0343 40.107 25.0049 39.9231 25.0049 39.7318C25.0049 39.4657 25.0623 39.2131 25.1646 38.9841C25.2897 39.0561 25.4344 39.0979 25.5894 39.0979C26.0591 39.0979 26.4396 38.7194 26.4396 38.2522C26.4396 38.145 26.4186 38.0423 26.3812 37.948C26.5353 37.9062 26.6973 37.8821 26.8645 37.8821C27.0311 37.8821 27.1936 37.9062 27.3477 37.948C27.3103 38.0423 27.2893 38.145 27.2893 38.2522C27.2893 38.7194 27.6707 39.0979 28.14 39.0979ZM23.9437 36.9259H24.5418L24.2425 37.2868L23.9437 36.9259ZM25.5451 36.0143L25.1823 36.312V35.7176L25.5451 36.0143ZM31.6821 39.8781L32.0052 39.6134V40.1442L31.6821 39.8781ZM24.243 34.7409L24.5422 35.1008H23.9442L24.243 34.7409ZM32.8045 38.7426L33.0711 39.064H32.537L32.8045 38.7426ZM33.643 39.6134L33.9656 39.8781L33.643 40.1432V39.6134ZM22.9852 36.0143L23.3475 35.7166V36.3111L22.9852 36.0143ZM35.6865 32.4961C35.6865 32.4961 34.0814 33.4193 31.5313 33.7592L29.9612 33.7611C27.3071 33.4267 25.3434 32.4682 25.3434 32.4682C18.3879 32.4682 16.8112 50.0005 22.0192 50.0005C26.4013 50.0005 24.9675 42.9737 30.9688 42.9737C35.8224 42.9737 35.4335 49.9355 38.6713 49.9355C43.8615 49.935 41.445 32.4961 35.6865 32.4961ZM32.3493 35.1227C32.6794 35.1227 32.9474 35.3883 32.9474 35.7166C32.9474 36.045 32.6794 36.3111 32.3493 36.3111C32.0192 36.3111 31.7522 36.045 31.7522 35.7166C31.7522 35.3883 32.0192 35.1227 32.3493 35.1227ZM30.3184 34.6183C30.4379 34.6183 30.5504 34.6429 30.6541 34.6838C30.5448 34.7553 30.4304 34.8417 30.3184 34.9374C30.2073 34.8417 30.0924 34.7553 29.9827 34.6847C30.0868 34.642 30.2003 34.6183 30.3184 34.6183ZM22.7144 36.0143C22.7144 35.1742 23.3988 34.4948 24.2425 34.4948C25.0861 34.4948 25.7701 35.1751 25.7701 36.0143C25.7701 36.8535 25.0861 37.5333 24.2425 37.5333C23.3988 37.5333 22.7144 36.853 22.7144 36.0143ZM26.8645 41.7593C25.7393 41.7593 24.8265 40.8524 24.8265 39.7332C24.8265 38.614 25.7393 37.707 26.8645 37.707C27.9896 37.707 28.9014 38.614 28.9014 39.7332C28.9014 40.8524 27.9896 41.7593 26.8645 41.7593ZM28.4444 36.3111C28.1147 36.3111 27.8472 36.045 27.8472 35.7166C27.8472 35.3883 28.1147 35.1227 28.4444 35.1227C28.7744 35.1227 29.0424 35.3883 29.0424 35.7166C29.0424 36.045 28.7744 36.3111 28.4444 36.3111ZM29.4229 35.51C29.4229 35.2666 29.5219 35.0447 29.682 34.8835C29.7595 35.0107 29.859 35.1459 29.9738 35.2801C29.8319 35.4426 29.7115 35.6103 29.6302 35.7607C29.5929 35.8262 29.5621 35.8866 29.5392 35.9395C29.4668 35.8114 29.4229 35.6669 29.4229 35.51ZM30.3184 36.4016C30.0373 36.4016 29.7908 36.2711 29.6265 36.0696C29.6858 36.0445 29.7577 36.0101 29.8356 35.9655C29.9864 35.8843 30.1564 35.7635 30.3184 35.6238C30.4818 35.7649 30.6508 35.8847 30.8016 35.9655C30.8791 36.0101 30.951 36.0445 31.0103 36.0696C30.8469 36.2702 30.5995 36.4016 30.3184 36.4016ZM31.0995 35.9391C31.0752 35.8866 31.0463 35.8258 31.008 35.7603C30.9267 35.6098 30.8058 35.4412 30.6648 35.2796C30.7806 35.1464 30.8791 35.0112 30.9575 34.883C31.1172 35.0447 31.2167 35.2648 31.2167 35.509C31.2157 35.6669 31.1714 35.8114 31.0995 35.9391ZM32.8045 41.2341C32.0514 41.2341 31.4408 40.6267 31.4408 39.8781C31.4408 39.129 32.0514 38.5216 32.8045 38.5216C33.5571 38.5216 34.1682 39.129 34.1682 39.8781C34.1682 40.6267 33.5571 41.2341 32.8045 41.2341ZM35.1179 37.9128C34.7579 37.9128 34.4661 37.6216 34.4661 37.2645C34.4661 36.9064 34.7579 36.6162 35.1179 36.6162C35.4778 36.6162 35.7696 36.9064 35.7696 37.2645C35.7696 37.6216 35.4774 37.9128 35.1179 37.9128ZM36.4214 35.0038C36.7813 35.0038 37.0731 35.294 37.0731 35.6521C37.0731 36.0101 36.7804 36.3004 36.4214 36.3004C36.0624 36.3004 35.7696 36.0101 35.7696 35.6521C35.7696 35.294 36.0614 35.0038 36.4214 35.0038ZM36.5694 39.2089C36.2094 39.2089 35.9176 38.9186 35.9176 38.5606C35.9176 38.2025 36.2094 37.9123 36.5694 37.9123C36.9293 37.9123 37.2211 38.2025 37.2211 38.5606C37.2216 38.9186 36.9298 39.2089 36.5694 39.2089ZM37.8734 37.5974C37.5134 37.5974 37.2216 37.3072 37.2216 36.9491C37.2216 36.5911 37.5134 36.3008 37.8734 36.3008C38.2333 36.3008 38.5251 36.5916 38.5251 36.9491C38.5256 37.3072 38.2338 37.5974 37.8734 37.5974ZM32.5375 40.6922H33.0716L32.805 41.014L32.5375 40.6922Z" fill="#00FFF0"/>
</g>
<defs>
<clipPath id="clip0">
<rect width="50.267" height="50" fill="white"/>
</clipPath>
</defs>
</svg>
