<svg width="54" height="50" viewBox="0 0 54 50" fill="none" xmlns="http://www.w3.org/2000/svg">
<path d="M47.2004 13.0859H6.50318C5.3074 13.0872 4.16097 13.53 3.31542 14.3172C2.46987 15.1045 1.99425 16.1718 1.99292 17.2852V32.7148C1.99425 33.8282 2.46987 34.8955 3.31542 35.6828C4.16097 36.47 5.3074 36.9128 6.50318 36.9141H47.2004C48.3962 36.9128 49.5426 36.47 50.3882 35.6828C51.2337 34.8955 51.7094 33.8282 51.7107 32.7148V17.2852C51.7094 16.1718 51.2337 15.1045 50.3882 14.3172C49.5426 13.53 48.3962 13.0872 47.2004 13.0859ZM3.46138 32.7148V17.2852C3.46227 16.5343 3.78303 15.8145 4.35328 15.2835C4.92354 14.7526 5.69672 14.454 6.50318 14.4531H11.6428V35.5469H6.50318C5.69672 35.546 4.92354 35.2474 4.35328 34.7165C3.78303 34.1855 3.46227 33.4657 3.46138 32.7148ZM13.1112 35.5469V14.4531H40.5924V35.5469H13.1112ZM50.2422 32.7148C50.2413 33.4657 49.9206 34.1855 49.3503 34.7165C48.7801 35.2474 48.0069 35.546 47.2004 35.5469H42.0608V14.4531H47.2004C48.0069 14.454 48.7801 14.7526 49.3503 15.2835C49.9206 15.8145 50.2413 16.5343 50.2422 17.2852V32.7148Z" fill="#00FFF0"/>
<path d="M38.8093 15.4297H14.8944C14.7979 15.4296 14.7024 15.4473 14.6133 15.4816C14.5242 15.516 14.4433 15.5663 14.3751 15.6298C14.3069 15.6933 14.2528 15.7687 14.2159 15.8516C14.1791 15.9346 14.1601 16.0235 14.1602 16.1133V33.8867C14.1601 33.9765 14.1791 34.0654 14.2159 34.1484C14.2528 34.2313 14.3069 34.3067 14.3751 34.3702C14.4433 34.4337 14.5242 34.484 14.6133 34.5184C14.7024 34.5527 14.7979 34.5704 14.8944 34.5703H38.8093C38.9057 34.5704 39.0012 34.5527 39.0903 34.5184C39.1794 34.484 39.2604 34.4337 39.3286 34.3702C39.3968 34.3067 39.4508 34.2313 39.4877 34.1484C39.5246 34.0654 39.5435 33.9765 39.5435 33.8867V16.1133C39.5435 16.0235 39.5246 15.9346 39.4877 15.8516C39.4508 15.7687 39.3968 15.6933 39.3286 15.6298C39.2604 15.5663 39.1794 15.516 39.0903 15.4816C39.0012 15.4473 38.9057 15.4296 38.8093 15.4297ZM38.075 33.2031H15.6286V16.7969H38.075V33.2031Z" fill="#00FFF0"/>
<path d="M36.2919 29.4801C36.3883 29.4801 36.4838 29.4625 36.5729 29.4281C36.6621 29.3938 36.743 29.3435 36.8112 29.28C36.8794 29.2165 36.9335 29.1411 36.9704 29.0581C37.0072 28.9752 37.0262 28.8863 37.0261 28.7965V23.4375C37.0261 23.2562 36.9488 23.0823 36.8111 22.9541C36.6734 22.8259 36.4866 22.7539 36.2919 22.7539C36.0972 22.7539 35.9104 22.8259 35.7727 22.9541C35.635 23.0823 35.5577 23.2562 35.5577 23.4375V28.7965C35.5576 28.8863 35.5766 28.9752 35.6135 29.0581C35.6503 29.1411 35.7044 29.2165 35.7726 29.28C35.8408 29.3435 35.9218 29.3938 36.0109 29.4281C36.1 29.4625 36.1955 29.4801 36.2919 29.4801Z" fill="#00FFF0"/>
<path d="M46.1515 28.1129C45.5084 28.1129 44.8797 28.2905 44.345 28.6231C43.8103 28.9558 43.3935 29.4286 43.1474 29.9817C42.9013 30.5349 42.8369 31.1436 42.9624 31.7309C43.0878 32.3181 43.3975 32.8575 43.8523 33.2809C44.307 33.7043 44.8864 33.9926 45.5171 34.1094C46.1479 34.2262 46.8017 34.1663 47.3958 33.9372C47.99 33.708 48.4978 33.32 48.8551 32.8222C49.2124 32.3243 49.4031 31.739 49.4031 31.1403C49.4021 30.3376 49.0592 29.5682 48.4496 29.0006C47.84 28.4331 47.0136 28.1138 46.1515 28.1129ZM46.1515 32.8004C45.7988 32.8004 45.4541 32.703 45.1608 32.5206C44.8676 32.3382 44.6391 32.0789 44.5041 31.7756C44.3691 31.4722 44.3338 31.1384 44.4026 30.8164C44.4714 30.4943 44.6413 30.1985 44.8906 29.9664C45.14 29.7342 45.4577 29.5761 45.8036 29.512C46.1495 29.4479 46.508 29.4808 46.8339 29.6065C47.1597 29.7321 47.4382 29.9449 47.6341 30.2179C47.83 30.4909 47.9346 30.8119 47.9346 31.1403C47.9342 31.5804 47.7462 32.0025 47.4119 32.3137C47.0776 32.625 46.6243 32.8 46.1515 32.8004Z" fill="#00FFF0"/>
<path d="M47.6985 15.8324C47.3043 15.8324 46.919 15.9412 46.5913 16.1451C46.2635 16.349 46.0081 16.6388 45.8573 16.9778C45.7064 17.3169 45.667 17.6899 45.7439 18.0499C45.8208 18.4098 46.0106 18.7404 46.2893 18.9999C46.568 19.2594 46.9231 19.4361 47.3097 19.5077C47.6963 19.5793 48.097 19.5425 48.4611 19.4021C48.8253 19.2617 49.1365 19.0238 49.3555 18.7187C49.5745 18.4136 49.6914 18.0548 49.6914 17.6879C49.6907 17.196 49.4805 16.7244 49.1069 16.3765C48.7333 16.0287 48.2268 15.833 47.6985 15.8324ZM47.6985 18.1761C47.5947 18.1762 47.4934 18.1475 47.4071 18.0939C47.3209 18.0402 47.2536 17.9639 47.2139 17.8747C47.1743 17.7855 47.1639 17.6873 47.1841 17.5926C47.2043 17.4979 47.2543 17.4109 47.3276 17.3426C47.401 17.2743 47.4944 17.2278 47.5962 17.209C47.6979 17.1901 47.8033 17.1998 47.8992 17.2368C47.995 17.2737 48.0769 17.3363 48.1345 17.4166C48.1922 17.4969 48.2229 17.5913 48.2229 17.6879C48.2228 17.8173 48.1675 17.9415 48.0692 18.033C47.9709 18.1246 47.8375 18.176 47.6985 18.1761Z" fill="#00FFF0"/>
<path d="M44.6042 22.4242C44.9983 22.4242 45.3836 22.3154 45.7114 22.1115C46.0391 21.9076 46.2945 21.6178 46.4454 21.2788C46.5962 20.9397 46.6357 20.5667 46.5588 20.2067C46.4819 19.8468 46.2921 19.5162 46.0134 19.2567C45.7347 18.9972 45.3796 18.8205 44.993 18.7489C44.6064 18.6773 44.2057 18.7141 43.8415 18.8545C43.4774 18.9949 43.1661 19.2328 42.9471 19.5379C42.7281 19.843 42.6113 20.2018 42.6113 20.5687C42.6118 21.0607 42.822 21.5323 43.1956 21.8802C43.5692 22.228 44.0758 22.4237 44.6042 22.4242ZM44.6042 20.0804C44.7079 20.0804 44.8093 20.1091 44.8955 20.1627C44.9818 20.2164 45.049 20.2927 45.0887 20.3819C45.1284 20.4711 45.1388 20.5693 45.1185 20.664C45.0983 20.7587 45.0484 20.8457 44.975 20.914C44.9017 20.9823 44.8082 21.0288 44.7065 21.0476C44.6048 21.0665 44.4993 21.0568 44.4035 21.0198C44.3076 20.9829 44.2257 20.9203 44.1681 20.84C44.1105 20.7597 44.0797 20.6653 44.0797 20.5687C44.0798 20.4393 44.1351 20.3151 44.2335 20.2236C44.3318 20.132 44.4651 20.0806 44.6042 20.0804Z" fill="#00FFF0"/>
<path d="M7.55206 21.8871C8.19516 21.8871 8.82383 21.7095 9.35855 21.3769C9.89327 21.0442 10.31 20.5714 10.5561 20.0183C10.8022 19.4651 10.8666 18.8564 10.7412 18.2691C10.6157 17.6819 10.306 17.1425 9.85128 16.7191C9.39654 16.2957 8.81716 16.0074 8.18641 15.8906C7.55567 15.7738 6.90188 15.8337 6.30773 16.0628C5.71358 16.292 5.20576 16.68 4.84847 17.1778C4.49118 17.6757 4.30048 18.261 4.30048 18.8597C4.30148 19.6624 4.64437 20.4318 5.25395 20.9994C5.86352 21.5669 6.68999 21.8862 7.55206 21.8871ZM7.55206 17.1996C7.90473 17.1996 8.24948 17.297 8.54271 17.4794C8.83595 17.6618 9.0645 17.9211 9.19946 18.2244C9.33442 18.5278 9.36973 18.8616 9.30093 19.1836C9.23212 19.5057 9.0623 19.8015 8.81292 20.0336C8.56355 20.2658 8.24583 20.4239 7.89993 20.488C7.55404 20.5521 7.19551 20.5192 6.86969 20.3935C6.54386 20.2679 6.26538 20.0551 6.06945 19.7821C5.87351 19.5091 5.76893 19.1881 5.76893 18.8597C5.76949 18.4196 5.95753 17.9976 6.29181 17.6864C6.62609 17.3752 7.07932 17.2001 7.55206 17.1996Z" fill="#00FFF0"/>
<path d="M6.00475 30.4567C5.61059 30.4567 5.22528 30.5655 4.89755 30.7694C4.56982 30.9732 4.31438 31.263 4.16354 31.6021C4.0127 31.9411 3.97324 32.3142 4.05013 32.6741C4.12703 33.034 4.31684 33.3647 4.59555 33.6242C4.87426 33.8836 5.22936 34.0604 5.61595 34.132C6.00254 34.2036 6.40324 34.1668 6.7674 34.0264C7.13155 33.8859 7.4428 33.6481 7.66179 33.343C7.88077 33.0378 7.99765 32.6791 7.99765 32.3121C7.99698 31.8202 7.78681 31.3486 7.41321 31.0008C7.03961 30.653 6.53309 30.4573 6.00475 30.4567ZM6.00475 32.8004C5.90102 32.8004 5.79962 32.7718 5.71338 32.7181C5.62713 32.6645 5.55991 32.5882 5.52022 32.499C5.48052 32.4098 5.47014 32.3116 5.49037 32.2169C5.51061 32.1222 5.56056 32.0352 5.63391 31.9669C5.70725 31.8986 5.8007 31.8521 5.90243 31.8332C6.00416 31.8144 6.10961 31.8241 6.20544 31.861C6.30127 31.898 6.38318 31.9606 6.44081 32.0409C6.49844 32.1212 6.52919 32.2156 6.52919 32.3121C6.52897 32.4416 6.47365 32.5657 6.37534 32.6572C6.27704 32.7487 6.14377 32.8002 6.00475 32.8004Z" fill="#00FFF0"/>
<path d="M9.09899 27.5758C8.70483 27.5758 8.31952 27.6846 7.99179 27.8885C7.66406 28.0924 7.40862 28.3822 7.25778 28.7212C7.10694 29.0603 7.06748 29.4333 7.14437 29.7933C7.22127 30.1532 7.41108 30.4838 7.68979 30.7433C7.9685 31.0028 8.3236 31.1795 8.71019 31.2511C9.09678 31.3227 9.49748 31.2859 9.86164 31.1455C10.2258 31.0051 10.537 30.7673 10.756 30.4621C10.975 30.157 11.0919 29.7983 11.0919 29.4313C11.0912 28.9394 10.881 28.4678 10.5075 28.1199C10.1339 27.7721 9.62734 27.5764 9.09899 27.5758ZM9.09899 29.9196C8.99526 29.9196 8.89386 29.8909 8.80762 29.8373C8.72137 29.7836 8.65415 29.7074 8.61446 29.6181C8.57476 29.5289 8.56438 29.4307 8.58461 29.336C8.60485 29.2413 8.6548 29.1543 8.72815 29.086C8.80149 29.0177 8.89494 28.9712 8.99667 28.9524C9.09841 28.9335 9.20385 28.9432 9.29969 28.9802C9.39552 29.0171 9.47742 29.0797 9.53505 29.16C9.59268 29.2403 9.62344 29.3347 9.62344 29.4313C9.62321 29.5607 9.56789 29.6848 9.46958 29.7763C9.37128 29.8678 9.23801 29.9194 9.09899 29.9196Z" fill="#00FFF0"/>
</svg>
