<svg width="100" height="100" viewBox="0 0 100 100" fill="none" xmlns="http://www.w3.org/2000/svg">
<path d="M59.6325 49.9789L22.2228 87.3902C21.1927 88.4179 20.626 89.7919 20.626 91.2569C20.626 92.7228 21.1927 94.0959 22.2228 95.1252L25.5008 98.4016C26.5293 99.4325 27.9041 100 29.3691 100C30.8342 100 32.2073 99.4325 33.2366 98.4016L77.7789 53.8602C78.8122 52.8276 79.3781 51.448 79.374 49.9813C79.3781 48.5081 78.813 47.1301 77.7789 46.0967L33.2781 1.59837C32.2488 0.567482 30.8756 0 29.4098 0C27.9447 0 26.5716 0.567482 25.5415 1.59837L22.2642 4.8748C20.1317 7.00732 20.1317 10.4789 22.2642 12.6106L59.6325 49.9789Z" fill="#00FFF0"/>
</svg>
