<svg width="50" height="50" viewBox="0 0 50 50" fill="none" xmlns="http://www.w3.org/2000/svg">
<path d="M27.3438 33.5938C29.6222 33.5912 31.8065 32.6849 33.4176 31.0738C35.0287 29.4628 35.9349 27.2784 35.9375 25V9.375C35.9349 7.09659 35.0287 4.91224 33.4176 3.30116C31.8065 1.69008 29.6222 0.783835 27.3438 0.78125H22.6562C20.3778 0.783835 18.1935 1.69008 16.5824 3.30116C14.9713 4.91224 14.0651 7.09659 14.0625 9.375V25C14.0651 27.2772 14.9704 29.4605 16.58 31.0714C18.1896 32.6823 20.3722 33.5894 22.6494 33.5938V40.4922L20.0205 37.8633C19.874 37.7169 19.6754 37.6346 19.4683 37.6346C19.2611 37.6346 19.0625 37.7169 18.916 37.8633L16.7061 40.0732C16.5597 40.2197 16.4774 40.4184 16.4774 40.6255C16.4774 40.8326 16.5597 41.0312 16.7061 41.1777L24.4404 48.9121C24.5869 49.0585 24.7856 49.1408 24.9927 49.1408C25.1998 49.1408 25.3984 49.0585 25.5449 48.9121L33.2793 41.1777C33.4257 41.0312 33.5079 40.8326 33.5079 40.6255C33.5079 40.4184 33.4257 40.2197 33.2793 40.0732L31.0693 37.8633C30.9228 37.7169 30.7242 37.6346 30.5171 37.6346C30.31 37.6346 30.1113 37.7169 29.9648 37.8633L27.3359 40.4922V33.5938H27.3438ZM15.625 9.375C15.6271 7.51086 16.3686 5.72368 17.6868 4.40552C19.0049 3.08737 20.7921 2.3459 22.6562 2.34375H27.3438C29.2079 2.3459 30.9951 3.08737 32.3132 4.40552C33.6314 5.72368 34.3729 7.51086 34.375 9.375V13.2812H15.625V9.375ZM30.5166 39.5205L31.6221 40.625L24.9922 47.2539L18.3633 40.625L19.4688 39.5205L22.8779 42.9307C22.9872 43.04 23.1265 43.1146 23.2781 43.1448C23.4297 43.1749 23.5869 43.1595 23.7297 43.1003C23.8726 43.0411 23.9946 42.9409 24.0804 42.8123C24.1663 42.6837 24.212 42.5325 24.2119 42.3779V24.1846H25.7734V42.3779C25.7733 42.5325 25.8191 42.6837 25.9049 42.8123C25.9907 42.9409 26.1128 43.0411 26.2556 43.1003C26.3985 43.1595 26.5556 43.1749 26.7073 43.1448C26.8589 43.1146 26.9982 43.04 27.1074 42.9307L30.5166 39.5205ZM26.5547 22.6221H23.4307C23.2235 22.6221 23.0247 22.7044 22.8782 22.8509C22.7317 22.9974 22.6494 23.1961 22.6494 23.4033V32.0312C20.7864 32.0273 19.001 31.2851 17.6843 29.9671C16.3676 28.6492 15.6271 26.863 15.625 25V14.8438H34.375V25C34.3729 26.8641 33.6314 28.6513 32.3132 29.9695C30.9951 31.2876 29.2079 32.0291 27.3438 32.0312H27.3359V23.4033C27.3359 23.1961 27.2536 22.9974 27.1071 22.8509C26.9606 22.7044 26.7619 22.6221 26.5547 22.6221Z" fill="#00FFF0"/>
<path d="M23.4375 11.7188H26.5625C26.7697 11.7188 26.9684 11.6364 27.1149 11.4899C27.2614 11.3434 27.3438 11.1447 27.3438 10.9375V4.6875C27.3438 4.4803 27.2614 4.28159 27.1149 4.13507C26.9684 3.98856 26.7697 3.90625 26.5625 3.90625H23.4375C23.2303 3.90625 23.0316 3.98856 22.8851 4.13507C22.7386 4.28159 22.6562 4.4803 22.6562 4.6875V10.9375C22.6562 11.1447 22.7386 11.3434 22.8851 11.4899C23.0316 11.6364 23.2303 11.7188 23.4375 11.7188ZM24.2188 5.46875H25.7812V10.1562H24.2188V5.46875Z" fill="#00FFF0"/>
</svg>
