<svg width="53" height="50" viewBox="0 0 53 50" fill="none" xmlns="http://www.w3.org/2000/svg">
<g clip-path="url(#clip0)">
<path d="M42.4646 26.3167C41.4954 26.3167 40.5374 26.4518 39.6169 26.7183L30.8018 29.0443V37.2099L44.139 33.6909L44.9526 36.4916L30.8018 40.2252V48.391L45.2933 44.5674L45.3332 44.5564C47.2934 43.9841 49.0538 42.8045 50.2907 41.2352C51.5707 39.6111 52.2471 37.6764 52.2471 35.6404C52.2471 30.4993 47.8586 26.3167 42.4646 26.3167Z" fill="#00FFF0"/>
<path d="M35.214 5.19307L15.5225 0V46.7731L27.7527 50V13.855C27.7527 13.0538 28.4366 12.402 29.2772 12.402C30.1178 12.402 30.8017 13.0538 30.8017 13.855V25.1587H32.3263C32.6021 25.1587 32.8756 25.1486 33.1462 25.1289C33.3266 25.1158 33.5058 25.0984 33.6836 25.0768C33.9504 25.0444 34.214 25.0025 34.4743 24.9516C34.6477 24.9177 34.8198 24.8797 34.9901 24.8378C35.0752 24.8169 35.1601 24.7949 35.2444 24.772C39.6305 23.582 42.8736 19.7789 42.9945 15.2492C42.9968 15.1621 42.998 15.0748 42.998 14.9871C42.9981 10.4487 39.7997 6.42188 35.214 5.19307Z" fill="#00FFF0"/>
<path d="M12.4739 25.7144L7.6217 26.9945C6.68869 27.2171 5.79431 27.5706 4.96295 28.0457C0.336752 30.6895 -1.17034 36.4276 1.60357 40.8369C2.70216 42.5832 4.32626 43.9109 6.30016 44.6765C7.47692 45.1328 8.74446 45.3644 10.0102 45.3643C10.7961 45.3643 11.5816 45.275 12.3438 45.0949L12.4738 45.0606V36.8956L8.31894 37.9918L7.50541 35.191L12.4738 33.8802V25.7144H12.4739Z" fill="#00FFF0"/>
</g>
<defs>
<clipPath id="clip0">
<rect width="52.4598" height="50" fill="white"/>
</clipPath>
</defs>
</svg>
