<svg width="53" height="50" viewBox="0 0 53 50" fill="none" xmlns="http://www.w3.org/2000/svg">
<g clip-path="url(#clip0)">
<path d="M5.75244 31.6526L3.98291 32.3085C1.32861 33.386 -0.0476987 34.5104 0.00145508 35.4942C0.148916 36.9465 1.8693 38.024 5.01514 38.8205C9.0949 39.8511 13.2238 40.0854 17.5002 39.4763V35.4005L14.1086 36.6186C10.5695 37.7898 8.75082 36.806 8.75082 36.806C8.21013 36.478 7.96436 35.6816 9.43897 35.1662L11.3068 34.5104L17.5002 32.4022V27.6704L15.9273 28.1857L5.75244 31.6526Z" fill="#00FFF0"/>
<path d="M31.6073 15.2086V27.3424C34.2616 28.5605 36.621 28.6542 38.3905 27.3893C40.2092 26.1712 41.1923 24.063 41.1923 20.8773C41.1923 17.551 40.5041 15.0212 38.9804 13.3346C37.6041 11.5543 35.1464 10.0552 31.509 8.88394C26.9869 7.47848 23.1529 6.2604 20.1053 5.65137V41.9593L28.314 44.3486V14.1779C28.2649 12.3508 31.6073 12.4913 31.6073 15.2086Z" fill="#00FFF0"/>
<path d="M52.4485 33.9482C52.3994 32.6833 50.8264 31.6995 48.0247 30.8093C44.8788 29.8255 42.1754 29.357 39.2262 29.4507C36.5227 29.4976 33.2785 30.3408 30.3785 31.231V35.869L38.3414 33.1986C38.3414 33.1986 40.7499 32.3553 42.8144 32.8707C44.3873 33.2455 44.289 34.0887 42.7161 34.6041L40.8974 35.3068L30.3785 38.9142V43.6459L35.2939 41.9594L47.0908 37.9772L48.4671 37.3682C51.318 36.3843 52.596 35.3068 52.4485 33.9482Z" fill="#00FFF0"/>
</g>
<defs>
<clipPath id="clip0">
<rect width="52.4598" height="50" fill="white"/>
</clipPath>
</defs>
</svg>
