<svg width="51" height="50" viewBox="0 0 51 50" fill="none" xmlns="http://www.w3.org/2000/svg">
<g clip-path="url(#clip0)">
<path d="M7.50594 0.802002L3.07086 1.163C2.62736 1.19961 2.28725 1.56827 2.37869 2.01101V17.4088L7.50594 16.9814V0.802002Z" fill="#00FFF0"/>
<path d="M44.159 39.4732C45.1029 39.4732 45.8681 38.7108 45.8681 37.7703C45.8681 36.8299 45.1029 36.0675 44.159 36.0675C43.2151 36.0675 42.4499 36.8299 42.4499 37.7703C42.4499 38.7108 43.2151 39.4732 44.159 39.4732Z" fill="#00FFF0"/>
<path d="M30.3846 39.4732C31.3285 39.4732 32.0937 38.7108 32.0937 37.7703C32.0937 36.8299 31.3285 36.0675 30.3846 36.0675C29.4407 36.0675 28.6755 36.8299 28.6755 37.7703C28.6755 38.7108 29.4407 39.4732 30.3846 39.4732Z" fill="#00FFF0"/>
<path d="M50.163 39.2441C50.3126 38.2897 50.2314 35.9738 49.8494 34.9232C49.0316 32.6703 46.7953 31.1557 44.2017 31.1557C44.2009 31.1557 44.2009 31.1557 44.2 31.1557C43.7924 31.1608 43.3224 31.2468 42.7618 31.4205C41.8475 31.7031 40.9177 31.9066 39.9786 32.0403V29.2562H39.9769V13.9308H39.9786V6.26806C39.9786 5.86194 39.5992 5.51286 39.2001 5.43368L13.5638 0.32521C13.5288 0.318399 13.4946 0.330319 13.4595 0.327764C13.4142 0.323507 13.3707 0.306479 13.3245 0.310736L9.21417 0.659815V16.8383L14.25 16.4918V2.19746L38.2686 6.96537V19.7323L14.25 16.4918L14.2457 16.7575V18.198L9.21417 18.5471V44.5816H7.50508V18.6885L2.37782 19.1159V45.2304L0.0491943 49.6901H14.5764H16.4872H28.2303H42.1235L39.8863 45.2321V43.7302H41.0339L42.5995 47.0566C43.0977 48.6105 44.576 49.6901 46.2167 49.6901C48.3112 49.6901 50.0152 47.9923 50.0135 45.8468L49.7699 42.3143C49.6956 41.2381 49.7366 41.0917 49.8468 40.7009C49.9289 40.4097 50.0417 40.0112 50.163 39.2441ZM15.6326 47.9872L14.7781 46.2844H24.4507C24.4609 46.3908 24.4823 46.493 24.5019 46.596C24.5079 46.6292 24.5113 46.6633 24.5182 46.6956C24.5643 46.9093 24.631 47.1154 24.7113 47.3138C24.7284 47.3563 24.7472 47.3981 24.766 47.4398C24.8506 47.6296 24.9455 47.8144 25.06 47.9855H15.6326V47.9872ZM24.5977 34.9274C24.2165 35.9806 24.1362 38.2939 24.2866 39.2432C24.4079 40.0104 24.519 40.4097 24.6011 40.7009C24.7113 41.0917 24.7523 41.2372 24.678 42.3134L24.5216 44.5816H14.25V18.307L38.2686 21.4496V32.1944C36.2596 32.2838 34.2096 32.0437 32.1364 31.4264C31.5656 31.2561 30.9324 31.165 30.2539 31.1565C30.2505 31.1565 30.171 31.1557 30.1667 31.1557C27.6535 31.1548 25.4155 32.6703 24.5977 34.9274ZM26.9664 37.7703C26.9664 35.8921 28.4995 34.3646 30.3846 34.3646C32.2697 34.3646 33.8028 35.8921 33.8028 37.7703C33.8028 39.6485 32.2697 41.1759 30.3846 41.1759C28.4995 41.1759 26.9664 39.6485 26.9664 37.7703ZM38.1772 43.7302V44.5816H33.0252C33.1157 44.3909 33.1935 44.2291 33.2602 44.0895C33.261 44.0869 33.2627 44.0835 33.2644 44.081C33.3311 43.9413 33.3875 43.8255 33.4336 43.7302H38.1772ZM31.4058 47.9872C31.4545 47.9132 31.4938 47.8314 31.5374 47.7539C31.569 47.6969 31.6041 47.6433 31.6331 47.5845C31.716 47.4159 31.7903 47.2414 31.8493 47.0583L32.2159 46.2853H38.5036L39.3582 47.9881H31.4058V47.9872ZM39.8863 36.9189C39.8863 37.3897 39.5043 37.7703 39.0317 37.7703H35.6136C35.141 37.7703 34.759 37.3897 34.759 36.9189V36.0675C34.759 35.5966 35.141 35.2161 35.6136 35.2161C36.0861 35.2161 36.4681 35.5966 36.4681 36.0675H38.1772C38.1772 35.5966 38.5592 35.2161 39.0317 35.2161C39.5043 35.2161 39.8863 35.5966 39.8863 36.0675V36.9189ZM44.159 41.1759C42.2739 41.1759 40.7408 39.6485 40.7408 37.7703C40.7408 35.8921 42.2739 34.3646 44.159 34.3646C46.0441 34.3646 47.5772 35.8921 47.5772 37.7703C47.5772 39.6485 46.0441 41.1759 44.159 41.1759Z" fill="#00FFF0"/>
</g>
<defs>
<clipPath id="clip0">
<rect width="50.1839" height="50" fill="white" transform="translate(0.0491943)"/>
</clipPath>
</defs>
</svg>
