<svg width="53" height="50" viewBox="0 0 53 50" fill="none" xmlns="http://www.w3.org/2000/svg">
<g clip-path="url(#clip0)">
<path d="M43.8921 28.992V0H4.53226V48.4799H6.27791V50.0005H44.55V48.4799H47.9281V30.4172C46.3479 30.4172 44.9973 29.8036 43.8921 28.992ZM23.0281 2.11398C23.0275 2.07041 23.0444 2.05641 23.0879 2.05744C23.4297 2.06056 23.7725 2.05018 24.1137 2.06937C24.5245 2.09167 24.8679 2.39352 24.863 2.82711C24.8543 3.69531 24.8608 4.56248 24.8608 5.42964C24.8608 5.69518 24.986 5.83989 25.2629 5.87515C25.3609 5.88708 25.4664 5.88345 25.5633 5.86426C25.7897 5.81966 25.9034 5.67496 25.9034 5.44987C25.9045 4.99398 25.9039 4.53914 25.9039 4.08325C25.9039 3.43288 25.9045 2.78354 25.9029 2.13317C25.9029 2.0756 25.917 2.05226 25.9812 2.05641C26.0601 2.06263 26.1396 2.05744 26.2294 2.05744C26.2294 2.09064 26.2294 2.11501 26.2294 2.13939C26.2294 3.35404 26.2294 4.56766 26.2294 5.7818C26.2294 6.18115 25.9148 6.50323 25.4958 6.53331C25.2972 6.54731 25.104 6.5302 24.9266 6.43684C24.6725 6.30407 24.5566 6.08624 24.5261 5.8207C24.5163 5.73564 24.5158 5.64851 24.5158 5.56241C24.5153 4.76111 24.5098 3.95878 24.518 3.15748C24.5212 2.88104 24.3188 2.74205 24.1022 2.71871C24.0255 2.71041 23.9477 2.71041 23.8704 2.71041C23.6125 2.70937 23.354 2.70937 23.0961 2.71041C23.0482 2.71145 23.0275 2.69952 23.0281 2.64869C23.0314 2.47132 23.0303 2.29343 23.0281 2.11398ZM23.8786 7.75626C24.3847 7.76041 24.8902 7.7573 25.3957 7.75833C25.5829 7.75833 25.7587 7.79983 25.9116 7.90718C26.1151 8.04774 26.2228 8.24741 26.2255 8.48028C26.2348 9.17941 26.2294 9.87802 26.2294 10.5782C26.2294 10.5911 26.2294 10.6057 26.2294 10.628C26.1287 10.628 26.0384 10.63 25.9486 10.6259C25.9328 10.6249 25.9159 10.5994 25.9056 10.5823C25.8985 10.572 25.9039 10.5548 25.9039 10.5398C25.9039 9.98486 25.9039 9.42836 25.9034 8.87341C25.9034 8.81947 25.9001 8.76605 25.8871 8.71419C25.849 8.556 25.7129 8.44657 25.5279 8.42219C25.4664 8.41493 25.4033 8.4113 25.3418 8.41026C24.851 8.40923 24.3607 8.41338 23.8699 8.40819C23.5842 8.40612 23.3399 8.31017 23.1756 8.07315C23.0689 7.92015 23.0308 7.74589 23.0303 7.56488C23.0286 6.8782 23.0303 6.19152 23.0292 5.50329C23.0292 5.45661 23.0422 5.43638 23.0939 5.43846C23.1696 5.44157 23.2447 5.44157 23.3198 5.4395C23.3627 5.43846 23.3791 5.45454 23.3758 5.49395C23.3742 5.50796 23.3753 5.52248 23.3753 5.53648C23.3753 6.11684 23.3834 6.6972 23.3725 7.27755C23.3649 7.61726 23.5815 7.75419 23.8786 7.75626ZM22.8784 11.0393C22.9943 11.0393 23.0999 11.0393 23.2278 11.0393C23.2278 11.0937 23.2278 11.1497 23.2278 11.2052C23.2278 11.9935 23.2278 12.7824 23.2278 13.5707C23.2283 13.8363 23.311 13.9488 23.5809 13.996C23.8144 14.0375 24.0511 14.0277 24.2666 13.911C24.3825 13.8482 24.4108 13.7408 24.4108 13.6164C24.4075 12.8182 24.4092 12.019 24.4092 11.2208C24.4092 11.1642 24.4092 11.1072 24.4092 11.0325C24.5349 11.0325 24.6377 11.0325 24.765 11.0325C24.765 11.0911 24.765 11.1471 24.765 11.2016C24.7656 12.0008 24.7661 12.799 24.7667 13.5982C24.7672 13.8254 24.8118 13.899 25.0328 13.9732C25.2651 14.05 25.4975 14.0328 25.7113 13.9094C25.8272 13.8415 25.8397 13.7253 25.8397 13.6065C25.8386 12.8177 25.8392 12.0293 25.8392 11.24C25.8392 11.1782 25.8392 11.1165 25.8392 11.0393C25.954 11.0393 26.0596 11.0393 26.1907 11.0393C26.1907 11.0979 26.1907 11.1585 26.1907 11.2187L26.1978 13.662C26.2196 14.2782 25.8816 14.5058 25.2831 14.509C24.986 14.511 24.7999 14.4483 24.605 14.3025C24.1605 14.5447 23.7056 14.5893 23.2332 14.3907C23.0324 14.3067 22.9231 14.1526 22.891 13.9488C22.8812 13.8871 22.8801 13.8243 22.8801 13.7616C22.8795 12.9105 22.8795 12.0599 22.8795 11.2078C22.8784 11.1554 22.8784 11.1041 22.8784 11.0393Z" fill="#00FFF0"/>
</g>
<defs>
<clipPath id="clip0">
<rect width="52.4604" height="50" fill="white"/>
</clipPath>
</defs>
</svg>
