<svg width="50" height="50" viewBox="0 0 50 50" fill="none" xmlns="http://www.w3.org/2000/svg">
<g clip-path="url(#clip0)">
<path d="M33.9199 15.1512C33.3809 15.1512 32.9434 15.5876 32.9434 16.1274C32.9434 16.6668 33.3809 17.104 33.9199 17.104C34.4601 17.104 34.8965 16.6668 34.8965 16.1274C34.8965 15.5876 34.4601 15.1512 33.9199 15.1512Z" fill="#00FFF0"/>
<path d="M16.1762 32.8945C15.6361 32.8945 15.1997 33.3321 15.1997 33.8711C15.1997 34.4113 15.6361 34.8477 16.1762 34.8477C16.7153 34.8477 17.1528 34.4113 17.1528 33.8711C17.1528 33.3321 16.7153 32.8945 16.1762 32.8945Z" fill="#00FFF0"/>
<path d="M48.8339 6.00774C48.5043 5.93107 48.1579 6.03063 47.9199 6.27096L43.8713 10.3515H41.9304L39.7938 8.13787V6.16987L43.7844 2.1198C44.0205 1.88024 44.1166 1.53577 44.0384 1.20809C43.9606 0.880785 43.7195 0.616808 43.4006 0.509233C42.3981 0.171251 41.3491 -2.94221e-05 40.2821 -2.94221e-05C37.1014 -2.94221e-05 34.2118 1.48313 32.354 4.06911C30.6153 6.48992 30.0793 9.45661 30.8472 12.2959L23.6538 19.4893L11.6695 7.47754V5.12006C11.6695 4.77712 11.4895 4.45897 11.1954 4.28273L4.29039 0.139207C3.90587 -0.0915822 3.41416 -0.0309285 3.09754 0.286073L0.335694 3.04753C0.0190734 3.36454 -0.0415802 3.85625 0.188828 4.24077L4.33159 11.1458C4.50783 11.4399 4.8256 11.6195 5.16854 11.6199L7.52526 11.6207L19.5107 23.6324L12.3448 30.7983C9.50547 30.0308 6.53725 30.5675 4.1153 32.3074C1.53084 34.164 0.0488281 37.0529 0.0488281 40.2336C0.0488281 41.3002 0.220108 42.3496 0.558091 43.3517C0.666047 43.6726 0.932694 43.9148 1.26228 43.9911C1.59226 44.0678 1.93825 43.9682 2.17667 43.7279L6.22483 39.6477H8.17643L10.4 41.8713V43.8229L6.31981 47.871C6.07949 48.1094 5.97992 48.4554 6.0566 48.7854C6.13289 49.115 6.37513 49.3816 6.69594 49.4896C7.69806 49.8276 8.74749 49.9989 9.81408 49.9989C12.9948 49.9989 15.8833 48.5165 17.7403 45.932C19.4801 43.5101 20.0169 40.5422 19.2494 37.7029L25.0046 31.9477L26.323 33.3797L25.7179 33.9844C25.3365 34.3658 25.3365 34.9842 25.7179 35.3657C26.0994 35.7468 26.7174 35.7468 27.0992 35.3657L27.647 34.8179L40.0166 48.254C40.0257 48.2639 40.0353 48.2735 40.0448 48.283C42.3336 50.5718 46.0419 50.5726 48.3319 48.2826C50.6153 45.998 50.6153 42.2806 48.3319 39.996C48.3219 39.986 48.3116 39.9765 48.3013 39.967L34.8442 27.6211L35.3859 27.0794C35.7674 26.6983 35.7674 26.0799 35.3859 25.6985C35.0044 25.317 34.3865 25.317 34.0046 25.6985L33.4038 26.2997L31.9691 24.9828L37.7522 19.1997C38.5742 19.4195 39.4226 19.5309 40.2821 19.5309C45.6669 19.5309 50.0473 15.1501 50.0473 9.7656C50.0473 8.69863 49.8761 7.64959 49.5381 6.64708C49.4301 6.32627 49.1635 6.08403 48.8339 6.00774ZM8.6216 9.95443C8.4385 9.77094 8.19016 9.67748 7.93076 9.67748L5.72205 9.67672L2.25601 3.88982L3.93944 2.20639L9.71642 5.67319V7.8819C9.71642 8.14054 9.81904 8.38849 10.0018 8.5716L22.2729 20.8706L20.8916 22.2515L8.6216 9.95443ZM33.4618 29.0035L46.9647 41.391C48.473 42.9153 48.4684 45.3834 46.9506 46.9021C45.4293 48.4234 42.9665 48.428 41.4391 46.9154L29.0291 33.4354L33.4618 29.0035ZM32.0214 27.6817L27.705 31.9973L26.3867 30.5653L30.5866 26.3649L32.0214 27.6817ZM40.2821 17.5777C39.428 17.5777 38.588 17.4408 37.7861 17.1707C37.4348 17.0528 37.0465 17.1436 36.784 17.4057C31.8882 22.3015 21.3391 32.8503 17.4545 36.7351C17.1921 36.9976 17.1009 37.3859 17.2196 37.7376C18.0313 40.1482 17.643 42.7193 16.1537 44.7926C14.6687 46.8597 12.3577 48.0457 9.81408 48.0457C9.52836 48.0457 9.24416 48.0301 8.96264 48L12.0644 44.9223C12.249 44.7391 12.3531 44.4897 12.3531 44.2291V41.4665C12.3531 41.2075 12.2501 40.9592 12.067 40.7761L9.27125 37.9803C9.08814 37.7972 8.8398 37.6942 8.58079 37.6942H5.81818C5.55764 37.6942 5.30816 37.7983 5.12467 37.9829L2.04735 41.0847C2.01683 40.8031 2.00157 40.5189 2.00157 40.2332C2.00157 37.6892 3.18718 35.3786 5.25475 33.8936C7.32766 32.4043 9.89915 32.0156 12.31 32.8277C12.6614 32.9464 13.0497 32.8552 13.3122 32.5928C13.3659 32.5394 32.6279 13.277 32.6416 13.2633C32.9041 13.0008 32.9949 12.6129 32.8766 12.2612C32.0645 9.85067 32.452 7.28032 33.9401 5.20856C35.4264 3.13947 37.7377 1.9531 40.2817 1.9531C40.5762 1.9531 40.8688 1.9695 41.1587 2.00154L38.1214 5.0842C37.9414 5.26693 37.8407 5.51297 37.8407 5.76932V8.53193C37.8407 8.78522 37.9387 9.02822 38.1146 9.21018L40.8127 12.006C40.9966 12.1967 41.2503 12.3043 41.5154 12.3043H44.278C44.5381 12.3043 44.7876 12.2005 44.9711 12.0155L48.0484 8.91416C48.079 9.19569 48.0942 9.47988 48.0942 9.7656C48.0942 14.0732 44.5896 17.5777 40.2821 17.5777Z" fill="#00FFF0"/>
<path d="M30.4676 18.1988L18.2472 30.4192C17.8662 30.8003 17.8662 31.4187 18.2472 31.8001C18.6287 32.1816 19.2471 32.1816 19.6285 31.8001L31.8489 19.5797C32.2304 19.1987 32.2304 18.5803 31.8489 18.1988C31.4675 17.8174 30.8491 17.8174 30.4676 18.1988Z" fill="#00FFF0"/>
<path d="M42.8082 44.1407C43.1896 44.521 43.808 44.521 44.1895 44.1384C44.5702 43.7566 44.569 43.1382 44.1872 42.7575L35.3848 33.9833C35.0029 33.6026 34.3842 33.6037 34.0038 33.9856C33.6228 34.3678 33.6239 34.9858 34.0057 35.3665L42.8082 44.1407Z" fill="#00FFF0"/>
</g>
<defs>
<clipPath id="clip0">
<rect width="49.9024" height="50" fill="white"/>
</clipPath>
</defs>
</svg>
