<svg width="50" height="50" viewBox="0 0 50 50" fill="none" xmlns="http://www.w3.org/2000/svg">
<g clip-path="url(#clip0)">
<path d="M49.5711 38.624L41.6483 30.7004L41.4851 28.6922L43.6686 27.3615C44.2862 26.9851 44.5367 26.2144 44.2584 25.5469L43.2745 23.1869L44.9397 21.2467C45.4107 20.6979 45.4108 19.8876 44.9399 19.3386L43.2744 17.3977L44.2584 15.0377C44.5367 14.3702 44.2862 13.5994 43.6686 13.223L41.4851 11.8924L41.6922 9.34412C41.7508 8.62322 41.2743 7.96746 40.5707 7.80027L38.0832 7.20955L37.4923 4.72136C37.3252 4.01755 36.668 3.54148 35.9485 3.59978L33.3995 3.80681L32.0687 1.62322C31.6924 1.00544 30.9212 0.755347 30.2539 1.03357L27.8941 2.01814L25.9543 0.353003C25.4055 -0.117993 24.5949 -0.117993 24.0462 0.353003L22.1061 2.01814L19.7463 1.03367C19.0786 0.755249 18.3079 1.00564 17.9314 1.62332L16.6007 3.80691L14.0516 3.59988C13.3307 3.54216 12.6751 4.01765 12.5079 4.72146L11.917 7.20964L9.42946 7.80037C8.72585 7.96755 8.24938 8.62332 8.30798 9.34421L8.51501 11.8925L6.33151 13.2231C5.71393 13.5995 5.46345 14.3702 5.74177 15.0378L6.72575 17.3978L5.06022 19.3387C4.58933 19.8876 4.58942 20.6979 5.06042 21.2468L6.72565 23.187L5.74177 25.5469C5.46345 26.2144 5.71393 26.9852 6.33151 27.3616L8.51501 28.6923L8.35183 30.7005L0.429267 38.624C0.0702827 38.983 -0.0772759 39.5022 0.0394233 39.9964C0.156025 40.4905 0.520283 40.8889 1.00183 41.0495L6.96354 43.0365L8.95056 48.9982C9.1111 49.4799 9.50954 49.844 10.0037 49.9606C10.4978 50.0772 11.0171 49.9298 11.376 49.5708L22.2541 38.6936L24.046 40.2322C24.5921 40.7011 25.4027 40.7059 25.9545 40.2322L27.7464 38.6936L38.6244 49.5707C38.9834 49.9297 39.5026 50.0772 39.9967 49.9605C40.4909 49.8439 40.8893 49.4797 41.0499 48.9981L43.0369 43.0364L48.9986 41.0494C49.4802 40.8888 49.8444 40.4904 49.961 39.9963C50.0776 39.5022 49.93 38.9829 49.5711 38.624ZM10.9809 45.8232L9.5112 41.4144C9.3654 40.977 9.02204 40.6338 8.58473 40.488L4.17692 39.0188L10.223 32.9726L11.9171 33.3751L12.5081 35.8633C12.6753 36.5671 13.333 37.0431 14.0518 36.9848L16.6008 36.7778L17.898 38.9064L10.9809 45.8232ZM31.3676 34.4824L30.2216 36.3631L28.1891 35.5151C27.6785 35.302 27.091 35.395 26.6709 35.7556L25.0002 37.1901L23.3295 35.7556C22.7421 35.2512 22.0813 35.4024 21.8112 35.5151L19.7788 36.3631L18.6327 34.4824C18.3448 34.0099 17.8161 33.7401 17.2633 33.7846L15.0679 33.963L14.559 31.82C14.4311 31.2815 14.0107 30.8612 13.4723 30.7333L11.33 30.2244L11.5084 28.0297C11.5532 27.478 11.2832 26.9482 10.8105 26.6602L8.92966 25.514L9.77712 23.4815C9.99011 22.9708 9.89714 22.3837 9.53659 21.9637L8.10231 20.2927L9.53669 18.621C9.89694 18.201 9.99001 17.614 9.77702 17.1033L8.92956 15.0708L10.8104 13.9246C11.2831 13.6365 11.553 13.1067 11.5083 12.5552L11.33 10.3604L13.4722 9.85164C14.0106 9.7238 14.431 9.30339 14.5589 8.76492L15.0678 6.62195L17.2633 6.80017C17.8149 6.84539 18.3446 6.57507 18.6326 6.10242L19.7787 4.22175L21.8111 5.0697C22.3216 5.28269 22.9092 5.18982 23.3292 4.82937L25.0002 3.39509L26.6711 4.82937C27.0912 5.18992 27.6784 5.28269 28.1891 5.0697L30.2216 4.22175L31.3676 6.10242C31.6556 6.57498 32.1846 6.84558 32.737 6.80017L34.9324 6.62195L35.4414 8.76492C35.5692 9.30339 35.9896 9.7238 36.528 9.85164L38.6703 10.3604L38.492 12.5552C38.4471 13.1068 38.7172 13.6366 39.1898 13.9246L41.0707 15.0708L40.2232 17.1033C40.0102 17.6139 40.1032 18.201 40.4635 18.621L41.8979 20.2927L40.4636 21.9637C40.1032 22.3837 40.0101 22.9708 40.2231 23.4815L41.0706 25.514L39.1897 26.6602C38.7171 26.9483 38.4471 27.4781 38.4919 28.0297L38.6702 30.2244L36.5279 30.7333C35.9895 30.8612 35.5691 31.2815 35.4413 31.82L34.9323 33.963L32.7369 33.7846C32.1853 33.7398 31.6556 34.0097 31.3676 34.4824ZM41.4156 40.488C40.9782 40.6338 40.6349 40.977 40.4891 41.4144L39.0194 45.8232L32.1025 38.9063L33.3997 36.7777L35.9487 36.9847C36.6674 37.043 37.3253 36.567 37.4925 35.8632L38.0835 33.375L39.7775 32.9725L45.8236 39.0187L41.4156 40.488Z" fill="#00FFF0"/>
<path d="M37.0188 16.1191L32.581 11.6813C32.009 11.1092 31.0814 11.1092 30.5094 11.6813L23.4311 18.7596L20.2752 15.6038C19.7032 15.0317 18.7757 15.0317 18.2036 15.6038L13.7657 20.0418C13.1937 20.6139 13.1937 21.5413 13.7657 22.1134L22.3953 30.743C22.9674 31.3152 23.895 31.315 24.4669 30.743L37.0189 18.1908C37.591 17.6187 37.591 16.6912 37.0188 16.1191ZM23.4311 27.6355L16.873 21.0775L19.2394 18.7112L22.3952 21.867C22.9672 22.4391 23.8947 22.4391 24.4668 21.867L31.5451 14.7887L33.9114 17.155L23.4311 27.6355Z" fill="#00FFF0"/>
</g>
<defs>
<clipPath id="clip0">
<rect width="50" height="50" fill="white"/>
</clipPath>
</defs>
</svg>
