<svg width="200" height="200" viewBox="0 0 200 200" fill="none" xmlns="http://www.w3.org/2000/svg">
<g clip-path="url(#clip0)">
<path d="M195.879 51.9899C193.574 43.4221 186.819 36.6686 178.252 34.3615C162.602 30.0784 99.9981 30.0784 99.9981 30.0784C99.9981 30.0784 37.3961 30.0784 21.7452 34.1982C13.3438 36.5038 6.42392 43.4237 4.11833 51.9899C0 67.6392 0 100.095 0 100.095C0 100.095 0 132.713 4.11833 148.199C6.42545 156.765 13.179 163.521 21.7467 165.828C37.5609 170.111 99.9996 170.111 99.9996 170.111C99.9996 170.111 162.602 170.111 178.252 165.991C186.82 163.685 193.574 156.93 195.881 148.364C199.999 132.713 199.999 100.259 199.999 100.259C199.999 100.259 200.164 67.6392 195.879 51.9899Z" fill="#FF0000"/>
<path d="M80.0656 130.078L132.124 100.095L80.0656 70.1111V130.078Z" fill="white"/>
</g>
<defs>
<clipPath id="clip0">
<rect width="200" height="200" fill="white"/>
</clipPath>
</defs>
</svg>
