<?xml version="1.0" encoding="utf-8"?><svg viewBox="0 0 200 200" xmlns="http://www.w3.org/2000/svg" xmlns:xlink="http://www.w3.org/1999/xlink"><style>:root>svg{display:none}:root>svg:target{display:block}</style><svg fill="none" viewBox="0 0 40 40" id="calendar" xmlns="http://www.w3.org/2000/svg"><g clip-path="url(#aclip0)" fill="#fff"><path d="M35.313 3.125h-1.876V0h-3.124v3.125H9.688V0H6.562v3.125H4.688A4.693 4.693 0 000 7.813v27.5A4.693 4.693 0 004.688 40h30.625A4.693 4.693 0 0040 35.312v-27.5a4.693 4.693 0 00-4.688-4.687zm1.562 32.188c0 .861-.7 1.562-1.563 1.562H4.689c-.862 0-1.563-.7-1.563-1.563V14.689h33.75v20.624zm0-23.75H3.125v-3.75c0-.862.7-1.563 1.563-1.563h1.875v3.125h3.125V6.25h20.624v3.125h3.125V6.25h1.876c.861 0 1.562.7 1.562 1.563v3.75z"/><path d="M9.063 17.969H5.937v3.125h3.125v-3.125zM15.313 17.969h-3.126v3.125h3.126v-3.125zM21.563 17.969h-3.125v3.125h3.125v-3.125zM27.813 17.969h-3.125v3.125h3.125v-3.125zM34.063 17.969h-3.126v3.125h3.125v-3.125zM9.063 24.219H5.937v3.125h3.125v-3.125zM15.313 24.219h-3.126v3.125h3.126v-3.125zM21.563 24.219h-3.125v3.125h3.125v-3.125zM27.813 24.219h-3.125v3.125h3.125v-3.125zM9.063 30.469H5.937v3.125h3.125v-3.125zM15.313 30.469h-3.126v3.125h3.126v-3.125zM21.563 30.469h-3.125v3.125h3.125v-3.125zM27.813 30.469h-3.125v3.125h3.125v-3.125zM34.063 24.219h-3.126v3.125h3.125v-3.125z"/></g><defs><clipPath id="aclip0"><path fill="#fff" d="M0 0h40v40H0z"/></clipPath></defs></svg><svg fill="none" viewBox="0 0 50 50" id="check" xmlns="http://www.w3.org/2000/svg"><g clip-path="url(#bclip0)"><path d="M16.878 46.559L0 29.68l9.88-9.879 6.998 7L40.12 3.56 50 13.44l-33.122 33.12z" fill="#ADDB31"/></g><defs><clipPath id="bclip0"><path fill="#fff" d="M0 0h50v50H0z"/></clipPath></defs></svg><svg fill="none" viewBox="0 0 30 30" id="instagram" xmlns="http://www.w3.org/2000/svg"><g clip-path="url(#cclip0)" fill="#00FFF0"><path d="M29.97 8.82c-.07-1.594-.327-2.69-.697-3.64a7.322 7.322 0 00-1.734-2.66A7.383 7.383 0 0024.884.791c-.955-.37-2.046-.627-3.64-.697C19.64.018 19.13 0 15.056 0c-4.073 0-4.583.018-6.183.088-1.594.07-2.69.328-3.64.697a7.32 7.32 0 00-2.66 1.735 7.386 7.386 0 00-1.73 2.655C.476 6.13.218 7.22.148 8.815.07 10.42.053 10.93.053 15.002c0 4.073.017 4.583.088 6.183.07 1.594.328 2.69.697 3.64a7.398 7.398 0 001.735 2.66 7.383 7.383 0 002.655 1.729c.955.369 2.045.627 3.64.697 1.599.07 2.109.088 6.182.088s4.583-.017 6.183-.088c1.594-.07 2.69-.328 3.639-.697a7.673 7.673 0 004.39-4.39c.369-.955.627-2.045.697-3.64.07-1.6.088-2.109.088-6.182s-.006-4.583-.076-6.183zm-2.7 12.249c-.065 1.465-.311 2.256-.517 2.783a4.976 4.976 0 01-2.848 2.849c-.527.205-1.324.45-2.784.515-1.582.07-2.057.088-6.06.088-4.002 0-4.483-.017-6.06-.088-1.464-.064-2.256-.31-2.783-.515a4.617 4.617 0 01-1.723-1.12 4.665 4.665 0 01-1.12-1.723c-.205-.527-.45-1.324-.515-2.784-.07-1.582-.088-2.057-.088-6.06 0-4.002.018-4.483.088-6.06.064-1.464.31-2.255.516-2.783A4.56 4.56 0 014.5 4.448a4.657 4.657 0 011.723-1.12c.527-.204 1.324-.45 2.784-.515 1.582-.07 2.057-.088 6.06-.088 4.008 0 4.483.018 6.06.088 1.464.065 2.256.31 2.783.516.65.24 1.242.62 1.723 1.119.498.487.879 1.073 1.12 1.723.204.528.45 1.325.515 2.784.07 1.582.088 2.057.088 6.06 0 4.002-.018 4.471-.088 6.054z"/><path d="M15.056 7.296a7.709 7.709 0 00-7.707 7.707 7.709 7.709 0 007.707 7.706 7.708 7.708 0 007.706-7.706 7.708 7.708 0 00-7.706-7.707zm0 12.706a5 5 0 11.001-10 5 5 0 01-.001 10zM24.866 6.992a1.8 1.8 0 11-3.598 0 1.8 1.8 0 013.598 0z"/></g><defs><clipPath id="cclip0"><path fill="#fff" d="M0 0h30v30H0z"/></clipPath></defs></svg><svg fill="none" viewBox="0 0 100 100" id="left_arrow" xmlns="http://www.w3.org/2000/svg"><path d="M40.367 50.021l37.41-37.411a5.423 5.423 0 001.597-3.867 5.428 5.428 0 00-1.597-3.868L74.5 1.598A5.426 5.426 0 0070.631 0a5.426 5.426 0 00-3.868 1.598L22.221 46.14a5.425 5.425 0 00-1.595 3.879 5.425 5.425 0 001.595 3.884l44.501 44.499A5.426 5.426 0 0070.59 100a5.429 5.429 0 003.869-1.598l3.277-3.277a5.477 5.477 0 000-7.736L40.367 50.021z" fill="#00FFF0"/></svg><svg fill="none" viewBox="0 0 51 50" id="microsoft1" xmlns="http://www.w3.org/2000/svg"><path d="M11.2 4.242c-.026.02-.046.04-.07.06.144-.15.349-.31.483-.398C15.549 1.36 20.093 0 25.137 0c4.718 0 9.137 1.296 12.909 3.55.273.161 1.02.67 1.405 1.133v.002C35.81.694 25.114 9.257 25.114 9.257c-3.7-2.837-7.103-4.77-9.637-5.458-2.117-.577-3.582-.095-4.278.443zm32.372 3.773c-.11-.122-.232-.237-.343-.363-.92-1.005-2.051-1.248-3.071-1.181-.928.29-5.216 1.826-10.5 6.789 0 0 5.948 5.753 9.591 11.635 3.64 5.882 5.816 10.505 4.478 16.92 4.061-4.44 6.538-10.339 6.538-16.817 0-6.556-2.538-12.523-6.693-16.983zm-9.08 19.392a173.5 173.5 0 00-7.184-7.517c-.694-.686-1.426-1.401-2.196-2.142 0 0-1.158 1.153-2.666 2.668v-.002c-1.93 1.94-4.433 4.47-5.822 5.946-2.473 2.625-9.558 10.87-9.957 15.493 0 0-1.576-3.667 1.883-12.123 2.26-5.529 9.09-13.83 11.942-16.534 0 0-2.606-2.853-5.876-4.823l-.02-.006s-.037-.03-.095-.066c-1.573-.933-3.29-1.652-4.943-1.747-1.687.119-2.756 1.347-2.756 1.347C2.584 12.374.004 18.386.004 25c0 13.806 11.252 25 25.133 25 7.367 0 13.995-3.16 18.594-8.182-.002-.008-.53-3.304-3.911-8.031-.795-1.108-3.7-4.565-5.327-6.38z" fill="#00FFF0"/></svg><svg fill="none" viewBox="0 0 51 50" id="microsoft2" xmlns="http://www.w3.org/2000/svg"><g clip-path="url(#fclip0)" fill="#00FFF0"><path d="M30.027 35.729c.42 0 .76-.339.76-.756a.758.758 0 00-.76-.756c-.42 0-.76.338-.76.756 0 .417.34.756.76.756zM43.024 32.605a2.377 2.377 0 00-2.381 2.368 2.377 2.377 0 002.38 2.368 2.377 2.377 0 002.381-2.368 2.377 2.377 0 00-2.38-2.368zm0 3.224a.86.86 0 01-.861-.856.86.86 0 01.86-.857.86.86 0 01.862.857.86.86 0 01-.861.856z"/><path d="M48.507 27.058H39.96a6.753 6.753 0 001.531-6.198l-1.955-7.59a.76.76 0 00-1.472.375l1.955 7.59a5.25 5.25 0 01-2.246 5.713l-4.05-5.045a4.153 4.153 0 00-3.256-1.559H19.799a4.154 4.154 0 00-3.256 1.559l-4.05 5.045a5.251 5.251 0 01-2.246-5.713l2.482-9.636a4.915 4.915 0 013.049-3.375l2.086-.776a1.329 1.329 0 011.397.302l2.08 2.069a2.773 2.773 0 001.97.811h3.646c.743 0 1.442-.288 1.968-.811l2.08-2.07a1.33 1.33 0 011.398-.301l2.087.776a4.889 4.889 0 012.751 2.543.76.76 0 001.008.37.754.754 0 00.373-1.002 6.396 6.396 0 00-3.6-3.327l-2.087-.776a2.86 2.86 0 00-2.75.427H20.082a2.859 2.859 0 00-2.75-.427l-2.087.776a6.43 6.43 0 00-3.988 4.416L8.775 20.86a6.753 6.753 0 001.532 6.198H1.76C.79 27.058 0 27.844 0 28.81v12.326c0 .965.79 1.751 1.76 1.751h3.086v.503c0 .417.34.756.76.756s.76-.339.76-.756v-.503H43.9v.503c0 .417.34.756.76.756s.76-.339.76-.756v-.503h3.086c.97 0 1.76-.785 1.76-1.751V28.809c0-.965-.79-1.75-1.76-1.75zM28.634 7.971l-.783.78a1.259 1.259 0 01-.894.368H23.31a1.26 1.26 0 01-.894-.369l-.783-.779h7.001zm19.873 33.404H1.76a.24.24 0 01-.241-.239v-6.768h24.163v1.21H4.018c-.42 0-.76.338-.76.755 0 .418.34.756.76.756h21.775c.776 0 1.408-.628 1.408-1.401v-1.43c0-.773-.632-1.401-1.408-1.401H1.52V28.81a.24.24 0 01.24-.24h10.796l.023.002.027-.002h3.503c.42 0 .76-.338.76-.756a.758.758 0 00-.76-.755h-1.76l3.382-4.213a2.64 2.64 0 012.068-.99h10.669c.81 0 1.563.36 2.068.99l3.382 4.213H19.425c-.42 0-.76.338-.76.755 0 .418.34.756.76.756h18.236l.027.002.023-.002h10.796a.24.24 0 01.24.24v12.326a.24.24 0 01-.24.24z"/><path d="M17.227 8.734a2.566 2.566 0 00-2.57 2.556 2.566 2.566 0 002.57 2.556 2.566 2.566 0 002.57-2.556 2.566 2.566 0 00-2.57-2.556zm0 3.6c-.579 0-1.05-.468-1.05-1.044 0-.576.471-1.045 1.05-1.045.58 0 1.05.469 1.05 1.045s-.47 1.044-1.05 1.044zM29.725 13.709a2.566 2.566 0 00-2.57 2.556 2.566 2.566 0 002.57 2.556 2.566 2.566 0 002.57-2.556 2.566 2.566 0 00-2.57-2.556zm0 3.6c-.579 0-1.05-.468-1.05-1.044 0-.576.471-1.045 1.05-1.045.58 0 1.05.469 1.05 1.045s-.47 1.045-1.05 1.045zM33.383 10.451c.42 0 .76-.338.76-.756a.758.758 0 00-.76-.755c-.42 0-.76.338-.76.755 0 .418.34.756.76.756zM33.383 14.465c.42 0 .76-.339.76-.756a.758.758 0 00-.76-.756c-.42 0-.76.339-.76.756s.34.756.76.756zM31.214 12.49c.42 0 .76-.34.76-.757a.758.758 0 00-.76-.755c-.42 0-.76.338-.76.755 0 .418.34.756.76.756zM35.553 12.49c.42 0 .76-.34.76-.757a.758.758 0 00-.76-.755c-.42 0-.76.338-.76.755 0 .418.34.756.76.756zM23.045 15.51h-1.05v-1.045a.758.758 0 00-.76-.756c-.42 0-.76.338-.76.756v1.044h-1.05c-.42 0-.76.339-.76.756s.34.756.76.756h1.05v1.044c0 .418.34.756.76.756s.76-.338.76-.756v-1.044h1.05c.42 0 .76-.339.76-.756a.758.758 0 00-.76-.756z"/></g><defs><clipPath id="fclip0"><path fill="#fff" d="M0 0h50.267v50H0z"/></clipPath></defs></svg><svg fill="none" viewBox="0 0 51 50" id="microsoft3" xmlns="http://www.w3.org/2000/svg"><g clip-path="url(#gclip0)"><path d="M21.643 32.242l-.002-.442c0-7.576.983-30.95.983-30.95a.852.852 0 00-.855-.85H9.594a.852.852 0 00-.854.85s.982 23.374.982 30.95c0 7.577-.982 17.35-.982 17.35 0 .47.382.85.854.85h9.1c-1.157-1.147-1.823-3.303-1.823-6.182 0-4.138 1.5-9.647 4.772-11.576zM20.634 6.149c0 .31-.064.602-.173.872a8.088 8.088 0 00-.664-.872c.252-.29.477-.587.664-.872.11.27.173.564.173.872zm-.698 1.657a2.338 2.338 0 01-1.643.672c-.412 0-.793-.115-1.129-.3a7.206 7.206 0 001.732-1.131c.35.3.705.556 1.04.759zm-1.642-3.984c.64 0 1.22.256 1.643.672-.336.201-.69.457-1.04.758a7.306 7.306 0 00-1.262-.894 4.834 4.834 0 00-.47-.236c.335-.186.717-.3 1.129-.3zm-1.471.528c.067.156.156.342.273.545.213.392.529.831.898 1.254-.37.424-.685.862-.898 1.255-.117.2-.206.389-.273.544a2.308 2.308 0 01-.87-1.799c0-.728.343-1.37.87-1.799zm-3.776 25.183a2.628 2.628 0 012.635-2.621 2.626 2.626 0 012.634 2.62 2.627 2.627 0 01-2.634 2.62 2.628 2.628 0 01-2.635-2.62zm15.093 9.565c.155 0 .3-.042.424-.114a1.828 1.828 0 01.077 1.296.848.848 0 00-1.352.681.84.84 0 00.18.52 1.856 1.856 0 01-1.21 0 .843.843 0 00-.67-1.365.848.848 0 00-.501.164 1.848 1.848 0 01.077-1.296.848.848 0 001.275-.732.824.824 0 00-.059-.304c.154-.042.316-.066.483-.066.167 0 .33.024.484.066a.824.824 0 00-.059.304c0 .467.382.846.851.846zm-4.196-2.172h.598l-.3.36-.298-.36zm1.601-.912l-.363.298v-.594l.363.296zm6.137 3.864l.323-.265v.531l-.323-.266zm-7.439-5.137l.3.36h-.599l.299-.36zm8.561 4.002l.267.321h-.534l.267-.321zm.839.87l.323.265-.323.265v-.53zm-10.658-3.599l.363-.297v.594l-.363-.297zm12.702-3.518s-1.606.923-4.156 1.263l-1.57.002c-2.654-.334-4.618-1.293-4.618-1.293C18.388 32.468 16.811 50 22.02 50c4.382 0 2.949-7.026 8.95-7.026 4.853 0 4.465 6.962 7.702 6.962 5.19-.001 2.774-17.44-2.984-17.44zm-3.338 2.627c.33 0 .598.265.598.594a.596.596 0 01-.598.594.595.595 0 110-1.188zm-2.03-.505c.119 0 .231.025.335.066-.11.071-.224.158-.336.253a3.064 3.064 0 00-.335-.252.883.883 0 01.335-.067zm-7.605 1.396c0-.84.685-1.52 1.529-1.52.843 0 1.527.681 1.527 1.52 0 .84-.684 1.52-1.527 1.52-.844 0-1.529-.681-1.529-1.52zm4.15 5.745a2.032 2.032 0 01-2.038-2.026c0-1.119.913-2.026 2.038-2.026 1.126 0 2.037.907 2.037 2.026 0 1.12-.911 2.026-2.037 2.026zm1.58-5.448a.595.595 0 110-1.188c.33 0 .598.265.598.594a.596.596 0 01-.598.594zm.979-.801c0-.243.099-.465.259-.627.078.128.177.263.292.397a2.752 2.752 0 00-.435.66.867.867 0 01-.116-.43zm.895.892a.889.889 0 01-.692-.332 2.824 2.824 0 00.692-.446 2.781 2.781 0 00.692.446.89.89 0 01-.692.332zm.781-.463a2.76 2.76 0 00-.435-.66c.117-.133.215-.268.294-.396.16.162.259.382.259.626a.882.882 0 01-.117.43zm1.705 5.295a1.36 1.36 0 01-1.363-1.356c0-.749.61-1.356 1.363-1.356a1.36 1.36 0 011.364 1.356 1.36 1.36 0 01-1.364 1.356zm2.314-3.321a.65.65 0 01-.652-.648.65.65 0 01.652-.649c.36 0 .652.29.652.648a.65.65 0 01-.652.649zm1.303-2.91c.36 0 .652.291.652.65a.65.65 0 01-1.303 0 .65.65 0 01.651-.65zm.148 4.206a.65.65 0 01-.651-.648.65.65 0 01.651-.649.65.65 0 110 1.297zm1.304-1.612a.65.65 0 01-.651-.648.65.65 0 01.651-.648c.36 0 .652.29.652.648a.65.65 0 01-.652.648zm-5.335 3.095h.534l-.267.322-.267-.322z" fill="#00FFF0"/></g><defs><clipPath id="gclip0"><path fill="#fff" d="M0 0h50.267v50H0z"/></clipPath></defs></svg><svg fill="none" viewBox="0 0 54 50" id="nintendo1" xmlns="http://www.w3.org/2000/svg"><path d="M47.2 13.086H6.503c-1.196.001-2.342.444-3.188 1.231-.845.787-1.32 1.855-1.322 2.968v15.43c.001 1.113.477 2.18 1.322 2.968.846.787 1.992 1.23 3.188 1.231H47.2a4.69 4.69 0 003.188-1.231c.846-.788 1.321-1.855 1.323-2.968v-15.43c-.002-1.113-.477-2.18-1.323-2.968a4.69 4.69 0 00-3.188-1.231zM3.461 32.715v-15.43c.001-.75.322-1.47.892-2.002.57-.53 1.344-.829 2.15-.83h5.14v21.094h-5.14c-.806-.001-1.58-.3-2.15-.83a2.74 2.74 0 01-.892-2.002zm9.65 2.832V14.453h27.481v21.094h-27.48zm37.131-2.832c0 .75-.321 1.47-.892 2.002-.57.53-1.343.829-2.15.83h-5.14V14.453h5.14c.807.001 1.58.3 2.15.83.57.532.891 1.251.892 2.002v15.43z" fill="#00FFF0"/><path d="M38.81 15.43H14.893a.781.781 0 00-.28.052.74.74 0 00-.239.148.683.683 0 00-.16.222.643.643 0 00-.055.261v17.774c0 .09.02.178.056.261a.683.683 0 00.16.222.74.74 0 00.237.148c.09.035.185.052.281.052H38.81a.78.78 0 00.52-.2.683.683 0 00.159-.222.643.643 0 00.056-.261V16.113a.643.643 0 00-.056-.261.683.683 0 00-.16-.222.78.78 0 00-.52-.2zm-.735 17.773H15.629V16.797h22.446v16.406z" fill="#00FFF0"/><path d="M36.292 29.48a.78.78 0 00.52-.2.682.682 0 00.158-.222.642.642 0 00.056-.261v-5.36a.66.66 0 00-.215-.483.763.763 0 00-.52-.2.763.763 0 00-.518.2.66.66 0 00-.215.483v5.36c0 .09.019.178.056.261a.68.68 0 00.159.222.78.78 0 00.52.2zM46.151 28.113c-.643 0-1.271.178-1.806.51a3.086 3.086 0 00-1.198 1.359 2.834 2.834 0 00-.185 1.749c.126.587.435 1.127.89 1.55a3.332 3.332 0 001.665.828c.63.117 1.285.057 1.879-.172a3.214 3.214 0 001.46-1.115 2.881 2.881 0 00.547-1.682A2.93 2.93 0 0048.45 29a3.381 3.381 0 00-2.299-.887zm0 4.687c-.352 0-.697-.097-.99-.28a1.692 1.692 0 01-.657-.744 1.554 1.554 0 01-.101-.96c.068-.322.238-.617.488-.85.249-.232.567-.39.913-.454a1.906 1.906 0 011.03.095c.326.125.604.338.8.61.196.274.3.595.3.923 0 .44-.188.862-.522 1.174a1.854 1.854 0 01-1.26.486zM47.699 15.832c-.395 0-.78.11-1.108.313a1.89 1.89 0 00-.734.833c-.15.339-.19.712-.113 1.072.077.36.267.69.545.95.279.26.634.436 1.02.508a2.13 2.13 0 001.152-.106 1.97 1.97 0 00.895-.683c.218-.305.335-.664.335-1.031 0-.492-.21-.964-.584-1.311a2.073 2.073 0 00-1.408-.545zm0 2.344a.552.552 0 01-.292-.082.499.499 0 01-.193-.22.458.458 0 01-.03-.281.479.479 0 01.144-.25.56.56 0 01.572-.106c.095.037.177.1.235.18a.464.464 0 01-.066.616.545.545 0 01-.37.143zM44.604 22.424a2.1 2.1 0 001.107-.313c.328-.203.584-.493.734-.832.151-.34.19-.712.114-1.072a1.82 1.82 0 00-.546-.95 2.042 2.042 0 00-1.02-.508 2.13 2.13 0 00-1.151.106 1.97 1.97 0 00-.895.683 1.766 1.766 0 00-.336 1.03c0 .493.211.964.585 1.312.373.348.88.544 1.408.544zm0-2.344c.104 0 .205.03.291.083.087.053.154.13.194.219.04.09.05.187.03.282a.478.478 0 01-.144.25.56.56 0 01-.572.106.517.517 0 01-.235-.18.465.465 0 01.066-.616.545.545 0 01.37-.144zM7.552 21.887c.643 0 1.272-.178 1.807-.51a3.086 3.086 0 001.197-1.359c.246-.553.31-1.162.185-1.749a2.97 2.97 0 00-.89-1.55 3.332 3.332 0 00-1.665-.828 3.476 3.476 0 00-1.878.172 3.214 3.214 0 00-1.46 1.115A2.881 2.881 0 004.3 18.86 2.93 2.93 0 005.254 21c.61.567 1.436.886 2.298.887zm0-4.687c.353 0 .697.097.99.28.294.182.523.441.657.744.135.304.17.638.102.96a1.628 1.628 0 01-.488.85c-.25.232-.567.39-.913.454a1.905 1.905 0 01-1.03-.095 1.761 1.761 0 01-.8-.61 1.58 1.58 0 01-.301-.923c0-.44.189-.862.523-1.174a1.854 1.854 0 011.26-.486zM6.005 30.457a2.1 2.1 0 00-1.107.312 1.89 1.89 0 00-.734.833c-.151.34-.19.712-.114 1.072.077.36.267.69.546.95.278.26.633.436 1.02.508a2.13 2.13 0 001.151-.106 1.97 1.97 0 00.895-.683c.219-.305.336-.664.336-1.03-.001-.493-.211-.964-.585-1.312a2.073 2.073 0 00-1.408-.544zm0 2.343a.552.552 0 01-.292-.082.497.497 0 01-.193-.219.457.457 0 01-.03-.282.479.479 0 01.144-.25.538.538 0 01.268-.134.562.562 0 01.303.028c.096.037.178.1.236.18a.465.465 0 01-.066.616.546.546 0 01-.37.143zM9.099 27.576a2.1 2.1 0 00-1.107.313 1.891 1.891 0 00-.734.832c-.151.34-.19.712-.114 1.072.077.36.267.69.546.95.278.26.634.437 1.02.508a2.13 2.13 0 001.152-.106c.364-.14.675-.378.894-.683.219-.305.336-.664.336-1.03 0-.493-.211-.964-.585-1.312a2.073 2.073 0 00-1.408-.544zm0 2.344a.553.553 0 01-.291-.083.498.498 0 01-.194-.219.457.457 0 01-.03-.282.479.479 0 01.144-.25.56.56 0 01.572-.106c.096.037.177.1.235.18a.465.465 0 01-.065.616.546.546 0 01-.371.144z" fill="#00FFF0"/></svg><svg fill="none" viewBox="0 0 100 100" id="right_arrow" xmlns="http://www.w3.org/2000/svg"><path d="M59.633 49.979L22.223 87.39a5.423 5.423 0 00-1.597 3.867c0 1.466.567 2.839 1.597 3.868l3.278 3.277A5.426 5.426 0 0029.369 100a5.426 5.426 0 003.868-1.598L77.779 53.86a5.425 5.425 0 001.595-3.879 5.425 5.425 0 00-1.595-3.884l-44.5-44.499A5.426 5.426 0 0029.408 0a5.429 5.429 0 00-3.867 1.598l-3.278 3.277a5.477 5.477 0 000 7.736l37.369 37.368z" fill="#00FFF0"/></svg><svg fill="none" viewBox="0 0 50 50" id="scroll" xmlns="http://www.w3.org/2000/svg"><path d="M27.344 33.594A8.604 8.604 0 0035.937 25V9.375A8.603 8.603 0 0027.345.781h-4.688a8.603 8.603 0 00-8.593 8.594V25a8.604 8.604 0 008.586 8.594v6.898l-2.629-2.629a.781.781 0 00-1.104 0l-2.21 2.21a.781.781 0 000 1.105l7.734 7.734a.781.781 0 001.105 0l7.734-7.734a.781.781 0 000-1.105l-2.21-2.21a.781.781 0 00-1.104 0l-2.63 2.63v-6.9h.009zM15.625 9.375a7.039 7.039 0 017.031-7.031h4.688a7.04 7.04 0 017.031 7.031v3.906h-18.75V9.375zM30.517 39.52l1.105 1.105-6.63 6.629-6.629-6.629 1.106-1.105 3.409 3.41a.782.782 0 001.334-.552V24.185h1.561v18.193a.782.782 0 001.334.553l3.41-3.41zm-3.962-16.898H23.43a.781.781 0 00-.782.781v8.628A7.039 7.039 0 0115.625 25V14.844h18.75V25a7.04 7.04 0 01-7.031 7.031h-.008v-8.628a.781.781 0 00-.781-.78z" fill="#00FFF0"/><path d="M23.438 11.719h3.125a.781.781 0 00.78-.781v-6.25a.781.781 0 00-.78-.782h-3.125a.781.781 0 00-.782.781v6.25a.781.781 0 00.782.782zm.78-6.25h1.563v4.687H24.22V5.47z" fill="#00FFF0"/></svg><svg fill="none" viewBox="0 0 53 50" id="sony1" xmlns="http://www.w3.org/2000/svg"><g clip-path="url(#kclip0)" fill="#00FFF0"><path d="M5.752 31.653l-1.77.656C1.33 33.386-.047 34.51.003 35.494c.147 1.453 1.867 2.53 5.013 3.327a31.928 31.928 0 0012.485.655v-4.075l-3.391 1.218c-3.54 1.17-5.358.187-5.358.187-.54-.328-.787-1.124.688-1.64l1.868-.656 6.193-2.108V27.67l-1.573.516-10.175 3.467zM31.607 15.209v12.133c2.655 1.219 5.014 1.312 6.784.047 1.818-1.218 2.801-3.326 2.801-6.512 0-3.326-.688-5.856-2.212-7.542-1.376-1.78-3.834-3.28-7.471-4.451-4.522-1.406-8.356-2.624-11.404-3.233V41.96l8.209 2.39V14.178c-.05-1.827 3.293-1.687 3.293 1.03z"/><path d="M52.449 33.948c-.05-1.265-1.623-2.248-4.424-3.139-3.146-.983-5.85-1.452-8.799-1.358-2.703.047-5.947.89-8.848 1.78v4.638l7.963-2.67s2.409-.844 4.473-.328c1.573.374 1.475 1.218-.098 1.733l-1.819.703-10.518 3.607v4.732l4.915-1.687 11.797-3.982 1.376-.609c2.851-.984 4.129-2.061 3.982-3.42z"/></g><defs><clipPath id="kclip0"><path fill="#fff" d="M0 0h52.46v50H0z"/></clipPath></defs></svg><svg fill="none" viewBox="0 0 51 50" id="sony2" xmlns="http://www.w3.org/2000/svg"><g clip-path="url(#lclip0)" fill="#00FFF0"><path d="M7.506.802l-4.435.361c-.444.037-.784.405-.692.848v15.398l5.127-.428V.802zM44.159 39.473c.944 0 1.71-.762 1.71-1.703 0-.94-.766-1.703-1.71-1.703s-1.71.763-1.71 1.703c0 .94.766 1.703 1.71 1.703zM30.385 39.473c.943 0 1.709-.762 1.709-1.703 0-.94-.766-1.703-1.71-1.703-.943 0-1.709.763-1.709 1.703 0 .94.766 1.703 1.71 1.703z"/><path d="M50.163 39.244c.15-.954.068-3.27-.314-4.32-.817-2.254-3.054-3.768-5.647-3.768H44.2c-.408.005-.878.09-1.438.265-.915.282-1.844.486-2.783.62v-2.785h-.002V13.931h.002V6.268c0-.406-.38-.755-.779-.834L13.564.325c-.035-.007-.07.005-.104.003-.046-.004-.09-.022-.136-.017L9.215.66v16.178l5.036-.346V2.197l24.019 4.768v12.767l-24.019-3.24-.004.265v1.441l-5.032.35v26.034H7.505V18.689l-5.127.427V45.23L.049 49.69h42.074l-2.237-4.458V43.73h1.148l1.566 3.327a3.822 3.822 0 003.617 2.633c2.094 0 3.798-1.698 3.797-3.843l-.244-3.533c-.074-1.076-.033-1.222.077-1.613.082-.291.195-.69.316-1.457zm-34.53 8.743l-.855-1.703h9.673c.01.107.031.209.05.312.007.033.01.067.017.1a3.765 3.765 0 00.248.744c.085.19.18.374.294.546h-9.427v.001zm8.965-13.06c-.381 1.054-.462 3.367-.311 4.316.12.767.232 1.167.314 1.458.11.39.151.536.077 1.612l-.156 2.269H14.25V18.307l24.019 3.143v10.744c-2.01.09-4.06-.15-6.133-.768a6.897 6.897 0 00-1.882-.27h-.087c-2.514-.001-4.752 1.514-5.57 3.771zm2.368 2.843a3.415 3.415 0 013.419-3.405 3.415 3.415 0 013.418 3.405 3.415 3.415 0 01-3.418 3.406 3.415 3.415 0 01-3.419-3.406zm11.211 5.96v.852h-5.152c.09-.191.169-.353.235-.492l.004-.009c.067-.14.123-.256.17-.35h4.743zm-6.771 4.257c.049-.074.088-.156.131-.233.032-.057.067-.11.096-.17.083-.168.157-.343.216-.526l.367-.773h6.288l.854 1.703h-7.952zm8.48-11.068c0 .47-.382.851-.854.851h-3.418a.852.852 0 01-.855-.851v-.851c0-.471.382-.852.855-.852.472 0 .854.38.854.852h1.71c0-.471.381-.852.854-.852.472 0 .854.38.854.852v.85zm4.273 4.257a3.415 3.415 0 01-3.418-3.406 3.415 3.415 0 013.418-3.405 3.415 3.415 0 013.418 3.405 3.415 3.415 0 01-3.418 3.406z"/></g><defs><clipPath id="lclip0"><path fill="#fff" transform="translate(.05)" d="M0 0h50.184v50H0z"/></clipPath></defs></svg><svg fill="none" viewBox="0 0 53 50" id="sony3" xmlns="http://www.w3.org/2000/svg"><g clip-path="url(#mclip0)"><path d="M43.892 28.992V0H4.532v48.48h1.746V50H44.55v-1.52h3.378V30.417c-1.58 0-2.93-.613-4.036-1.425zM23.028 2.114c0-.044.016-.058.06-.057.342.004.684-.007 1.026.012.41.023.754.325.749.758-.009.868-.002 1.735-.002 2.603 0 .265.125.41.402.445a.973.973 0 00.3-.01c.227-.045.34-.19.34-.415.002-.456 0-.91 0-1.367 0-.65.002-1.3 0-1.95 0-.057.014-.08.078-.077.08.007.159.001.248.001V5.782c0 .4-.314.721-.733.751a1.036 1.036 0 01-.57-.096c-.253-.133-.37-.35-.4-.616a2.267 2.267 0 01-.01-.259c0-.8-.006-1.603.002-2.405.003-.276-.2-.415-.416-.438-.076-.009-.154-.009-.232-.009a96.08 96.08 0 00-.774 0c-.048.001-.069-.01-.068-.061a17.33 17.33 0 000-.535zm.85 5.642c.507.004 1.012.001 1.518.002.187 0 .363.042.516.15.203.14.31.34.314.572.009.7.003 1.398.003 2.098v.05c-.1 0-.19.002-.28-.002-.016-.001-.033-.027-.043-.044-.008-.01-.002-.027-.002-.042V8.873a.652.652 0 00-.017-.159c-.038-.158-.174-.267-.36-.292a1.869 1.869 0 00-.185-.012c-.491 0-.981.003-1.472-.002-.286-.002-.53-.098-.694-.335a.869.869 0 01-.146-.508V5.503c0-.046.012-.067.064-.065.076.004.15.004.226.002.043-.002.06.015.056.054-.002.014 0 .028 0 .042 0 .58.007 1.161-.004 1.742-.007.34.21.476.507.478zm-1 3.283h.35v2.532c0 .265.083.378.353.425.233.041.47.032.686-.085.116-.063.144-.17.144-.295-.004-.798-.002-1.597-.002-2.395v-.188h.356v.169l.002 2.396c0 .227.045.301.266.375.232.077.464.06.678-.064.116-.068.129-.184.129-.303V11.24v-.2h.35v.179l.008 2.443c.022.616-.316.844-.915.847-.297.002-.483-.06-.678-.207-.445.243-.9.287-1.372.089a.542.542 0 01-.342-.442 1.193 1.193 0 01-.01-.187c-.002-.851-.002-1.702-.002-2.554v-.169z" fill="#00FFF0"/></g><defs><clipPath id="mclip0"><path fill="#fff" d="M0 0h52.46v50H0z"/></clipPath></defs></svg><svg fill="none" viewBox="0 0 53 50" id="sony4" xmlns="http://www.w3.org/2000/svg"><g clip-path="url(#nclip0)" fill="#00FFF0"><path d="M42.465 26.317c-.97 0-1.928.135-2.848.401l-8.815 2.326v8.166l13.337-3.52.814 2.802-14.151 3.733v8.166l14.491-3.824.04-.01c1.96-.573 3.72-1.753 4.958-3.322a8.963 8.963 0 001.956-5.595c0-5.14-4.388-9.323-9.782-9.323z"/><path d="M35.214 5.193L15.523 0v46.773L27.753 50V13.855c0-.801.684-1.453 1.524-1.453s1.525.652 1.525 1.453v11.304h1.524a11.292 11.292 0 002.664-.321c.085-.021.17-.043.254-.066 4.386-1.19 7.63-4.993 7.75-9.523.003-.087.004-.174.004-.262 0-4.538-3.198-8.565-7.784-9.794zM12.474 25.714l-4.852 1.28c-.933.223-1.828.577-2.659 1.052-4.626 2.643-6.133 8.382-3.36 12.79 1.1 1.747 2.723 3.075 4.697 3.84a10.294 10.294 0 006.044.419l.13-.034v-8.165l-4.155 1.096-.814-2.801 4.969-1.31v-8.167z"/></g><defs><clipPath id="nclip0"><path fill="#fff" d="M0 0h52.46v50H0z"/></clipPath></defs></svg><svg fill="none" viewBox="0 0 50 50" id="tools" xmlns="http://www.w3.org/2000/svg"><g clip-path="url(#oclip0)" fill="#00FFF0"><path d="M33.92 15.151a.976.976 0 100 1.952.976.976 0 000-1.952zM16.176 32.895a.976.976 0 100 1.952.976.976 0 000-1.953z"/><path d="M48.834 6.008a.976.976 0 00-.914.263l-4.049 4.08h-1.94l-2.137-2.213V6.17l3.99-4.05a.976.976 0 00-.383-1.61A9.74 9.74 0 0040.282 0c-3.18 0-6.07 1.483-7.928 4.07-1.739 2.42-2.275 5.387-1.507 8.226l-7.193 7.193L11.669 7.478V5.12a.976.976 0 00-.474-.837L4.29.139a.976.976 0 00-1.192.147L.336 3.048A.977.977 0 00.189 4.24l4.143 6.905a.977.977 0 00.837.474h2.356l11.986 12.012-7.166 7.166c-2.84-.767-5.808-.23-8.23 1.51C1.531 34.163.05 37.052.05 40.233c0 1.066.171 2.116.51 3.118a.976.976 0 001.618.376l4.048-4.08h1.951L10.4 41.87v1.952L6.32 47.87a.977.977 0 00.376 1.619 9.738 9.738 0 003.118.509c3.18 0 6.07-1.483 7.926-4.067 1.74-2.422 2.277-5.39 1.51-8.23l5.755-5.754 1.318 1.432-.605.604a.977.977 0 001.381 1.382l.548-.548 12.37 13.436.028.029a5.858 5.858 0 008.287 0 5.868 5.868 0 000-8.287l-.03-.029-13.458-12.346.542-.542a.976.976 0 10-1.381-1.38l-.601.6-1.435-1.316 5.783-5.783c.822.22 1.67.33 2.53.33 5.385 0 9.765-4.38 9.765-9.764a9.74 9.74 0 00-.509-3.119.976.976 0 00-.704-.64zM8.622 9.954a.967.967 0 00-.691-.277H5.722L2.256 3.89l1.683-1.684 5.777 3.467v2.209c0 .259.103.506.286.69l12.27 12.299-1.38 1.38L8.622 9.954zm24.84 19.05L46.965 41.39a3.906 3.906 0 01-5.526 5.524l-12.41-13.48 4.433-4.432zm-1.44-1.322l-4.317 4.315-1.318-1.432 4.2-4.2 1.434 1.317zm8.26-10.104a7.804 7.804 0 01-2.496-.407.978.978 0 00-1.002.235l-19.33 19.33a.976.976 0 00-.234 1.002c.811 2.41.423 4.981-1.066 7.055a7.723 7.723 0 01-6.34 3.253c-.286 0-.57-.016-.851-.046l3.101-3.078a.977.977 0 00.29-.693v-2.762a.976.976 0 00-.287-.69L9.271 37.98a.977.977 0 00-.69-.286H5.818c-.26 0-.51.104-.693.289l-3.078 3.102a7.902 7.902 0 01-.045-.852 7.721 7.721 0 013.253-6.34c2.073-1.489 4.644-1.877 7.055-1.065a.976.976 0 001.002-.235l19.33-19.33a.976.976 0 00.235-1.002A7.73 7.73 0 0133.94 5.21a7.725 7.725 0 016.342-3.256c.294 0 .587.016.877.049L38.12 5.084a.976.976 0 00-.28.685v2.763c0 .253.098.496.274.678l2.698 2.796c.184.19.437.298.702.298h2.763c.26 0 .51-.104.693-.289l3.077-3.1c.031.28.046.565.046.85 0 4.308-3.504 7.813-7.812 7.813z"/><path d="M30.468 18.199l-12.22 12.22a.977.977 0 001.38 1.381l12.22-12.22a.976.976 0 10-1.38-1.381zM42.808 44.14a.977.977 0 001.38-1.383l-8.803-8.774a.977.977 0 00-1.38 1.384l8.803 8.774z"/></g><defs><clipPath id="oclip0"><path fill="#fff" d="M0 0h49.902v50H0z"/></clipPath></defs></svg><svg fill="none" viewBox="0 0 40 40" id="vk" xmlns="http://www.w3.org/2000/svg"><g clip-path="url(#pclip0)"><path d="M33.192 21.713c-.647-.816-.462-1.18 0-1.91.008-.008 5.346-7.385 5.896-9.886l.004-.002c.273-.912 0-1.582-1.322-1.582h-4.373c-1.114 0-1.627.575-1.902 1.219 0 0-2.227 5.33-5.377 8.785-1.016.998-1.486 1.318-2.041 1.318-.274 0-.699-.32-.699-1.232V9.915c0-1.093-.311-1.582-1.233-1.582h-6.877c-.698 0-1.113.51-1.113.985 0 1.037 1.575 1.275 1.738 4.192v6.328c0 1.387-.251 1.642-.81 1.642-1.486 0-5.095-5.352-7.233-11.477-.432-1.188-.853-1.668-1.975-1.668H1.5C.252 8.335 0 8.91 0 9.553c0 1.137 1.487 6.789 6.913 14.255 3.617 5.097 8.71 7.859 13.344 7.859 2.785 0 3.125-.614 3.125-1.669 0-4.87-.252-5.33 1.143-5.33.647 0 1.76.32 4.36 2.779 2.972 2.915 3.46 4.22 5.123 4.22h4.374c1.246 0 1.878-.614 1.515-1.824-.832-2.545-6.452-7.78-6.705-8.13z" fill="#00FFF0"/></g><defs><clipPath id="pclip0"><path fill="#fff" d="M0 0h40v40H0z"/></clipPath></defs></svg><svg fill="none" viewBox="0 0 50 50" id="warranty" xmlns="http://www.w3.org/2000/svg"><g clip-path="url(#qclip0)" fill="#00FFF0"><path d="M49.571 38.624L41.648 30.7l-.163-2.008 2.184-1.33a1.465 1.465 0 00.59-1.815l-.984-2.36 1.665-1.94a1.465 1.465 0 000-1.908l-1.666-1.941.984-2.36a1.465 1.465 0 00-.59-1.815l-2.183-1.33.207-2.549A1.465 1.465 0 0040.571 7.8l-2.488-.59-.59-2.489A1.466 1.466 0 0035.948 3.6l-2.55.207-1.33-2.184a1.465 1.465 0 00-1.815-.59l-2.36.985-1.94-1.665a1.465 1.465 0 00-1.908 0l-1.94 1.665-2.36-.984a1.465 1.465 0 00-1.815.59l-1.33 2.183-2.55-.207a1.466 1.466 0 00-1.543 1.121l-.591 2.489-2.488.59a1.465 1.465 0 00-1.121 1.544l.207 2.549-2.183 1.33a1.465 1.465 0 00-.59 1.815l.984 2.36-1.666 1.94c-.47.55-.47 1.36 0 1.909l1.666 1.94-.984 2.36a1.465 1.465 0 00.59 1.815l2.183 1.33-.163 2.009-7.923 7.923a1.465 1.465 0 00.573 2.425l5.962 1.987 1.987 5.962a1.465 1.465 0 002.425.573l10.878-10.877 1.792 1.538a1.465 1.465 0 001.909 0l1.791-1.538L38.624 49.57a1.465 1.465 0 002.426-.573l1.987-5.962 5.962-1.987a1.465 1.465 0 00.572-2.425zm-38.59 7.2l-1.47-4.41a1.465 1.465 0 00-.926-.926l-4.408-1.47 6.046-6.045 1.694.402.591 2.488c.167.704.825 1.18 1.544 1.122l2.549-.207 1.297 2.128-6.917 6.917zm20.387-11.342l-1.146 1.881-2.033-.848a1.465 1.465 0 00-1.518.24L25 37.19l-1.672-1.434c-.587-.505-1.248-.354-1.518-.24l-2.032.847-1.146-1.88a1.464 1.464 0 00-1.37-.698l-2.195.178-.509-2.143a1.465 1.465 0 00-1.087-1.087l-2.142-.509.178-2.194a1.465 1.465 0 00-.697-1.37L8.93 25.514l.847-2.032c.213-.511.12-1.098-.24-1.518l-1.435-1.671 1.435-1.672c.36-.42.453-1.007.24-1.518l-.847-2.032 1.88-1.146c.473-.289.743-.818.698-1.37l-.178-2.195 2.142-.508a1.465 1.465 0 001.087-1.087l.509-2.143 2.195.178a1.464 1.464 0 001.37-.698l1.146-1.88 2.032.848c.51.213 1.098.12 1.518-.24L25 3.394l1.671 1.434c.42.36 1.007.454 1.518.24l2.033-.847 1.146 1.88c.288.473.817.744 1.369.698l2.195-.178.51 2.143c.127.538.548.959 1.086 1.087l2.142.508-.178 2.195a1.465 1.465 0 00.698 1.37l1.88 1.146-.847 2.032c-.213.51-.12 1.098.24 1.518l1.435 1.672-1.434 1.67a1.465 1.465 0 00-.24 1.518l.847 2.033-1.881 1.146a1.465 1.465 0 00-.698 1.37l.178 2.194-2.142.51a1.465 1.465 0 00-1.087 1.086l-.509 2.143-2.195-.178a1.465 1.465 0 00-1.37.697zm10.048 6.006c-.438.146-.781.489-.927.926l-1.47 4.41-6.916-6.918 1.297-2.128 2.549.207a1.467 1.467 0 001.544-1.122l.59-2.488 1.695-.403 6.046 6.047-4.408 1.469z"/><path d="M37.019 16.12L32.58 11.68a1.465 1.465 0 00-2.072 0l-7.078 7.079-3.156-3.156a1.465 1.465 0 00-2.071 0l-4.438 4.438a1.465 1.465 0 000 2.071l8.63 8.63c.571.572 1.499.572 2.07 0L37.02 18.191c.572-.572.572-1.5 0-2.072zM23.43 27.634l-6.558-6.558 2.366-2.366 3.156 3.156c.572.572 1.5.572 2.072 0l7.078-7.078 2.366 2.366-10.48 10.48z"/></g><defs><clipPath id="qclip0"><path fill="#fff" d="M0 0h50v50H0z"/></clipPath></defs></svg><svg fill="none" viewBox="0 0 200 200" id="youtube" xmlns="http://www.w3.org/2000/svg"><g clip-path="url(#rclip0)"><path d="M195.879 51.99c-2.305-8.568-9.06-15.321-17.627-17.629-15.65-4.283-78.254-4.283-78.254-4.283s-62.602 0-78.253 4.12C13.344 36.504 6.424 43.424 4.118 51.99 0 67.64 0 100.095 0 100.095s0 32.618 4.118 48.104c2.307 8.566 9.061 15.322 17.629 17.629C37.56 170.111 100 170.111 100 170.111s62.602 0 78.252-4.12c8.568-2.306 15.322-9.061 17.629-17.627 4.118-15.651 4.118-48.105 4.118-48.105s.165-32.62-4.12-48.27z" fill="red"/><path d="M80.066 130.078l52.058-29.983-52.058-29.984v59.967z" fill="#fff"/></g><defs><clipPath id="rclip0"><path fill="#fff" d="M0 0h200v200H0z"/></clipPath></defs></svg></svg>