<?xml version="1.0" encoding="utf-8"?><svg viewBox="0 0 40 40" xmlns="http://www.w3.org/2000/svg" xmlns:xlink="http://www.w3.org/1999/xlink"><style>:root>svg{display:none}:root>svg:target{display:block}</style><svg fill="none" viewBox="0 0 40 40" id="calendar" xmlns="http://www.w3.org/2000/svg"><g clip-path="url(#aclip0)" fill="#fff"><path d="M35.313 3.125h-1.876V0h-3.124v3.125H9.688V0H6.562v3.125H4.688A4.693 4.693 0 000 7.813v27.5A4.693 4.693 0 004.688 40h30.625A4.693 4.693 0 0040 35.312v-27.5a4.693 4.693 0 00-4.688-4.687zm1.562 32.188c0 .861-.7 1.562-1.563 1.562H4.689c-.862 0-1.563-.7-1.563-1.563V14.689h33.75v20.624zm0-23.75H3.125v-3.75c0-.862.7-1.563 1.563-1.563h1.875v3.125h3.125V6.25h20.624v3.125h3.125V6.25h1.876c.861 0 1.562.7 1.562 1.563v3.75z"/><path d="M9.063 17.969H5.937v3.125h3.125v-3.125zM15.313 17.969h-3.126v3.125h3.126v-3.125zM21.563 17.969h-3.125v3.125h3.125v-3.125zM27.813 17.969h-3.125v3.125h3.125v-3.125zM34.063 17.969h-3.126v3.125h3.125v-3.125zM9.063 24.219H5.937v3.125h3.125v-3.125zM15.313 24.219h-3.126v3.125h3.126v-3.125zM21.563 24.219h-3.125v3.125h3.125v-3.125zM27.813 24.219h-3.125v3.125h3.125v-3.125zM9.063 30.469H5.937v3.125h3.125v-3.125zM15.313 30.469h-3.126v3.125h3.126v-3.125zM21.563 30.469h-3.125v3.125h3.125v-3.125zM27.813 30.469h-3.125v3.125h3.125v-3.125zM34.063 24.219h-3.126v3.125h3.125v-3.125z"/></g><defs><clipPath id="aclip0"><path fill="#fff" d="M0 0h40v40H0z"/></clipPath></defs></svg><svg fill="none" viewBox="0 0 30 30" id="instagram" xmlns="http://www.w3.org/2000/svg"><g clip-path="url(#bclip0)" fill="#00FFF0"><path d="M29.97 8.82c-.07-1.594-.327-2.69-.697-3.64a7.322 7.322 0 00-1.734-2.66A7.383 7.383 0 0024.884.791c-.955-.37-2.046-.627-3.64-.697C19.64.018 19.13 0 15.056 0c-4.073 0-4.583.018-6.183.088-1.594.07-2.69.328-3.64.697a7.32 7.32 0 00-2.66 1.735 7.386 7.386 0 00-1.73 2.655C.476 6.13.218 7.22.148 8.815.07 10.42.053 10.93.053 15.002c0 4.073.017 4.583.088 6.183.07 1.594.328 2.69.697 3.64a7.398 7.398 0 001.735 2.66 7.383 7.383 0 002.655 1.729c.955.369 2.045.627 3.64.697 1.599.07 2.109.088 6.182.088s4.583-.017 6.183-.088c1.594-.07 2.69-.328 3.639-.697a7.673 7.673 0 004.39-4.39c.369-.955.627-2.045.697-3.64.07-1.6.088-2.109.088-6.182s-.006-4.583-.076-6.183zm-2.7 12.249c-.065 1.465-.311 2.256-.517 2.783a4.976 4.976 0 01-2.848 2.849c-.527.205-1.324.45-2.784.515-1.582.07-2.057.088-6.06.088-4.002 0-4.483-.017-6.06-.088-1.464-.064-2.256-.31-2.783-.515a4.617 4.617 0 01-1.723-1.12 4.665 4.665 0 01-1.12-1.723c-.205-.527-.45-1.324-.515-2.784-.07-1.582-.088-2.057-.088-6.06 0-4.002.018-4.483.088-6.06.064-1.464.31-2.255.516-2.783A4.56 4.56 0 014.5 4.448a4.657 4.657 0 011.723-1.12c.527-.204 1.324-.45 2.784-.515 1.582-.07 2.057-.088 6.06-.088 4.008 0 4.483.018 6.06.088 1.464.065 2.256.31 2.783.516.65.24 1.242.62 1.723 1.119.498.487.879 1.073 1.12 1.723.204.528.45 1.325.515 2.784.07 1.582.088 2.057.088 6.06 0 4.002-.018 4.471-.088 6.054z"/><path d="M15.056 7.296a7.709 7.709 0 00-7.707 7.707 7.709 7.709 0 007.707 7.706 7.708 7.708 0 007.706-7.706 7.708 7.708 0 00-7.706-7.707zm0 12.706a5 5 0 11.001-10 5 5 0 01-.001 10zM24.866 6.992a1.8 1.8 0 11-3.598 0 1.8 1.8 0 013.598 0z"/></g><defs><clipPath id="bclip0"><path fill="#fff" d="M0 0h30v30H0z"/></clipPath></defs></svg><svg fill="none" viewBox="0 0 40 40" id="vk" xmlns="http://www.w3.org/2000/svg"><g clip-path="url(#cclip0)"><path d="M33.192 21.713c-.647-.816-.462-1.18 0-1.91.008-.008 5.346-7.385 5.896-9.886l.004-.002c.273-.912 0-1.582-1.322-1.582h-4.373c-1.114 0-1.627.575-1.902 1.219 0 0-2.227 5.33-5.377 8.785-1.016.998-1.486 1.318-2.041 1.318-.274 0-.699-.32-.699-1.232V9.915c0-1.093-.311-1.582-1.233-1.582h-6.877c-.698 0-1.113.51-1.113.985 0 1.037 1.575 1.275 1.738 4.192v6.328c0 1.387-.251 1.642-.81 1.642-1.486 0-5.095-5.352-7.233-11.477-.432-1.188-.853-1.668-1.975-1.668H1.5C.252 8.335 0 8.91 0 9.553c0 1.137 1.487 6.789 6.913 14.255 3.617 5.097 8.71 7.859 13.344 7.859 2.785 0 3.125-.614 3.125-1.669 0-4.87-.252-5.33 1.143-5.33.647 0 1.76.32 4.36 2.779 2.972 2.915 3.46 4.22 5.123 4.22h4.374c1.246 0 1.878-.614 1.515-1.824-.832-2.545-6.452-7.78-6.705-8.13z" fill="#00FFF0"/></g><defs><clipPath id="cclip0"><path fill="#fff" d="M0 0h40v40H0z"/></clipPath></defs></svg></svg>